<svg xmlns="http://www.w3.org/2000/svg" viewBox="0 0 512 512">
  <defs>
    <style>
      .cls-1{fill:url(#linear-gradient);}
      .cls-2,.cls-3,.cls-4{fill:none;stroke-miterlimit:10;}
      .cls-2,.cls-4{stroke:#000;}
      .cls-2{stroke-width:16px;}
      .cls-3{stroke:#f2f2f2;stroke-width:12px;}
      .cls-4{stroke-width:8px;}
    </style>
    <linearGradient id="linear-gradient" x1="256" y1="406.05" x2="256" y2="105.95" gradientUnits="userSpaceOnUse">
      <stop offset="0"/>
      <stop offset="0.5" stop-color="#1d1d1d"/>
      <stop offset="0.5" stop-color="#6d6d6d"/>
      <stop offset="1" stop-color="#c5c5c5"/>
    </linearGradient>
  </defs>
  <path class="cls-1"
        d="M17.37,406.05,179.52,168.87h-121L97.72,106H494.63l-38.24,62.92H291.82L207.6,302H328.12l-23.72,12.1L263.74,331q-23.22,9.68-48.16,19.84T166.45,371q-24.21,9.92-43.56,17.67T91.43,401.21Q79.32,406,78.84,406.05Z"/>
  <path class="cls-2"
        d="M17.37,406.05,179.52,168.87h-121L97.72,106H494.63l-38.24,62.92H291.82L207.6,302H328.12l-23.72,12.1L263.74,331q-23.22,9.68-48.16,19.84T166.45,371q-24.21,9.92-43.56,17.67T91.43,401.21Q79.32,406,78.84,406.05Z"/>
  <path class="cls-3"
        d="M17.37,406.05,179.52,168.87h-121L97.72,106H494.63l-38.24,62.92H291.82L207.6,302H328.12l-23.72,12.1L263.74,331q-23.22,9.68-48.16,19.84T166.45,371q-24.21,9.92-43.56,17.67T91.43,401.21Q79.32,406,78.84,406.05Z"/>
  <path class="cls-4"
        d="M17.37,406.05,179.52,168.87h-121L97.72,106H494.63l-38.24,62.92H291.82L207.6,302H328.12l-23.72,12.1L263.74,331q-23.22,9.68-48.16,19.84T166.45,371q-24.21,9.92-43.56,17.67T91.43,401.21Q79.32,406,78.84,406.05Z"/>
</svg>
