<?xml version="1.0" standalone="no"?>
<!DOCTYPE svg PUBLIC "-//W3C//DTD SVG 1.1//EN" "http://www.w3.org/Graphics/SVG/1.1/DTD/svg11.dtd" >
<svg xmlns="http://www.w3.org/2000/svg" xmlns:xlink="http://www.w3.org/1999/xlink" version="1.1">
<metadata>
Created by FontForge 20170731 at Tue Jul  9 16:05:36 2013
 By Aleksey,,,
2013 Iconian Fonts - www.iconian.com
</metadata>
<defs>
<font id="TarrgetAcademyItalic" horiz-adv-x="842" >
  <font-face 
    font-family="Tarrget Academy Italic"
    font-weight="400"
    font-style="italic"
    font-stretch="normal"
    units-per-em="1000"
    panose-1="0 0 0 0 0 0 0 0 0 0"
    ascent="800"
    descent="-200"
    x-height="530"
    cap-height="530"
    bbox="-71 -172 1994 743"
    underline-thickness="50"
    underline-position="-175"
    unicode-range="U+0020-2122"
  />
<missing-glyph horiz-adv-x="500" 
 />
    <glyph glyph-name=".notdef" horiz-adv-x="500" 
 />
    <glyph glyph-name=".null" horiz-adv-x="0" 
 />
    <glyph glyph-name="nonmarkingreturn" horiz-adv-x="500" 
 />
    <glyph glyph-name="space" unicode=" " horiz-adv-x="299" 
 />
    <glyph glyph-name="space" unicode="&#xa0;" horiz-adv-x="299" 
 />
    <glyph glyph-name="FL076Ch" unicode="!" horiz-adv-x="262" 
d="M277 0h-229l331 530h229zM591 518h-209l-209 -334h209zM377 176h-209l-103 -164h209zM269 38h-165l70 112h165zM376 210h-165l176 282h165z" />
    <glyph glyph-name="FL0022h" unicode="&#x22;" horiz-adv-x="393" 
d="M228 228l199 104l64 101l-1 -1h-134zM385 228l199 104l64 101l-1 -1h-134zM346 454h148l55 33l-20 -33h122l54 33l-103 -165l-271 -142l76 121l-233 -121zM150 158l232 121l-75 -121l303 158l124 197l-81 -48h-106l30 48l-81 -48h-154z" />
    <glyph glyph-name="FL0023h" unicode="#" horiz-adv-x="776" 
d="M346 405l-71 -113h64l-31 -51h-64l-70 -112h64l-57 -91h209l57 91h122l-57 -91h208l57 91h65l70 112h-65l31 51h65l71 113h-65l54 87h-208l-54 -87h-122l54 87h-209l-54 -87h-64zM670 292l-31 -51h-122l31 51h122zM400 431l55 87h262l-55 -87h68l55 87h262l-55 -87h65
l-205 -328h-65l-57 -91h-262l57 91h-68l-57 -91h-262l57 91h-65l205 328h65zM331 443l-220 -352h64l-57 -91h287l57 91h43l-57 -91h287l57 91h66l220 352h-66l54 87h-287l-54 -87h-43l54 87h-287l-54 -87h-64z" />
    <glyph glyph-name="FL0024h" unicode="$" horiz-adv-x="896" 
d="M337 -70h211l69 110h195l132 60l149 237h-290l38 61h282q-3 11 -14.5 30.5t-25.5 39t-27.5 33.5t-19.5 14h-122l69 110h-211l-69 -110h-203l-124 -64l-145 -231h287l-39 -63h-279q3 -11 14.5 -30.5t25.5 -39t27.5 -33.5t19.5 -14h119zM729 220h81l-39 -63h-81zM630 398
l-38 -61h-78l38 61h78zM557 364h24l5 7h-24zM735 184h26l6 9h-26zM362 13h-92q-5 0 -14.5 9.5t-21 25.5t-24 35t-23 38t-18.5 36t-10 27h310l6 9h-287l169 271l150 78h186l68 110h266l-68 -110h94q7 0 24.5 -21t35.5 -49t33 -56.5t18 -44.5h-312l-5 -7h289l-174 -279
l-160 -72h-174l-69 -110h-266zM272 -110h291l69 110h167l172 78l175 280h38q-4 18 -20.5 51t-36.5 65.5t-39 56.5t-27 24h-82l68 109h-291l-68 -109h-178l-162 -84l-171 -274h-38q4 -18 20.5 -51t36.5 -65.5t39 -56.5t27 -24h79z" />
    <glyph glyph-name="FL0025h" unicode="%" horiz-adv-x="946" 
d="M138 39h230l865 470h-231zM309 344h372l147 235h-372zM660 508l-59 -95h-137l59 95h137zM542 -30h371l147 235h-371zM893 134l-60 -95h-137l60 95h137zM740 66h82l26 41h-82zM508 440h82l26 41h-82zM633 160l-272 -148h-315l561 305h-342l180 288h426l-137 -219l274 149
h315l-559 -304h339l-180 -288h-426zM478 -69h451l195 313h-317l559 304h-355l-247 -135l128 205h-452l-195 -313h320l-561 -305h355l245 133zM771 95h57l-10 -17h-57zM539 469h56l-11 -17h-56z" />
    <glyph glyph-name="FL0026h" unicode="&#x26;" horiz-adv-x="848" 
d="M966 211l67 108h-534l39 62h370l69 111h-576l-122 -196l28 -30l-67 -32l-122 -196h674l69 111l-60 62h165zM654 149h-261l39 62h261zM437 175h206l7 10h-206zM875 185l22 -22l-95 -151h-728l147 235l38 18l-16 17l148 236h630l-102 -163h-369l-6 -10h533l-100 -160h-102z
M982 173l115 184h-164l108 173h-656l-159 -255l10 -10l-23 -11l-159 -254h754l106 170l-3 3h71z" />
    <glyph glyph-name="FL0027h" unicode="'" horiz-adv-x="262" 
d="M224 230l227 102h1l62 99h-1h-164zM341 453h181l37 14l-99 -158h-17l-266 -119zM155 171l285 128h24l116 186l-53 -21h-189z" />
    <glyph glyph-name="FL0028h" unicode="(" horiz-adv-x="454" 
d="M440 563l-363 -581h351l72 116h-160l219 350h160l72 115h-351zM832 589l-104 -167h-160l-187 -298h160l-104 -168h-401l395 633h401zM427 602l-411 -658h424l121 193h-159l170 272h159l120 193h-424z" />
    <glyph glyph-name="FL0029h" unicode=")" horiz-adv-x="454" 
d="M851 602l-411 -658h-424l121 193h160l170 272h-160l120 193h424zM431 589l-104 -167h160l-187 -298h-160l-104 -168h401l395 633h-401zM791 563l-363 -581h-351l72 116h160l219 350h-160l72 115h351z" />
    <glyph glyph-name="FL002Ah" unicode="*" horiz-adv-x="244" 
d="M379 336l74 38l-11 26l43 6l13 55l-41 -15l24 33h-64l-15 -33l-19 16l-53 -55l30 -7l-42 -24l25 -40l38 34zM352 323l-23 -20l-44 72l23 13l-14 4l98 102l8 -8l6 14h112l-13 -19l23 9l-25 -101l-23 -3l5 -13l-134 -70zM340 289l159 83l-3 7l16 3l30 122l-16 -6l9 11h-134
l-2 -4l-5 4l-118 -124l8 -2l-14 -9l54 -86l16 15v-14z" />
    <glyph glyph-name="FL002Bh" unicode="+" horiz-adv-x="411" 
d="M442 406l-63 -101h-101l-67 -106h101l-63 -102h107l63 102h100l67 106h-100l63 101h-107zM588 430l-63 -100h101l-97 -155h-101l-63 -102h-155l63 102h-102l97 155h102l63 100h155zM428 442l-63 -101h-101l-111 -178h101l-63 -101h178l63 101h101l111 178h-101l63 101
h-178z" />
    <glyph glyph-name="FL002Ch" unicode="," horiz-adv-x="262" 
d="M37 -69l228 102h1l61 99h-1h-164zM154 154h181l38 15l-99 -158h-17l-267 -120zM-32 -128l285 128h24l116 186l-53 -21h-189z" />
    <glyph glyph-name="FL002Dh" unicode="-" horiz-adv-x="411" 
d="M179 147h308l49 78h-308zM214 243h358l-71 -114h-358zM126 120h380l82 131h-380z" />
    <glyph glyph-name="FL002Eh" unicode="." horiz-adv-x="262" 
d="M277 0h-229l82 131h229zM344 123h-209l-72 -115h209zM261 26h-165l50 79h165z" />
    <glyph glyph-name="FL002Fh" unicode="/" horiz-adv-x="889" 
d="M95 38h238l871 454h-238zM974 518h324l-973 -506h-323zM-41 0h365l1016 530h-364z" />
    <glyph glyph-name="FL0030h" unicode="0" horiz-adv-x="848" 
d="M537 492q-23 0 -52.5 -8.5t-58.5 -23.5t-55 -36.5t-42 -47.5l-139 -222q-12 -20 -18 -40.5t-1 -37t24.5 -27.5t58.5 -11h468q39 0 72 11t59 27.5t45.5 37t31.5 40.5l139 222q16 26 16.5 47.5t-9.5 36.5t-29 23.5t-42 8.5h-468zM406 150q-4 6 -1 17l123 197q5 5 8.5 7
t12.5 10h306q0 -8 1 -10t-3 -7l-123 -197q-4 -5 -9.5 -9.5t-10.5 -7.5h-304zM438 176h271l112 179h-271zM1022 518q28 0 50.5 -10t34.5 -29t10.5 -45t-21.5 -58l-139 -222q-15 -24 -38.5 -49t-55.5 -45.5t-72 -34t-86 -13.5h-468q-47 0 -70 13.5t-28.5 34t2 45.5t22.5 49
l139 222q20 32 51.5 58t66.5 45t70.5 29t63.5 10h468zM561 530q-30 0 -68 -11.5t-76.5 -31.5t-72.5 -48.5t-55 -62.5l-139 -222q-16 -26 -24.5 -53t-2 -49.5t31 -37t75.5 -14.5h468q50 0 93 14.5t77.5 37t60 49.5t41.5 53l139 222q21 34 22.5 62.5t-11.5 48.5t-37 31.5
t-54 11.5h-468zM555 343h246l-97 -155h-246z" />
    <glyph glyph-name="FL0031h" unicode="1" horiz-adv-x="387" 
d="M407 0h-256l214 343h-79q15 47 30 79t25 51q1 3 7 18.5t15 38.5h375zM719 518h-347q-6 -14 -11 -25t-9 -19q-8 -19 -23.5 -50t-26.5 -69h82l-215 -343h233zM395 38h-185l214 343h-89q4 13 11.5 29.5t15.5 33t14.5 29.5t8.5 19h293z" />
    <glyph glyph-name="FL0032h" unicode="2" horiz-adv-x="896" 
d="M1144 530l59 -81l-164 -261h38q-17 -12 -49 -30t-70.5 -39t-79.5 -42t-75.5 -38.5t-59 -28t-29.5 -10.5h-536l-77 75l167 267h-38q17 11 49 29.5t70.5 39.5t79.5 42t75.5 38.5t59 28t29.5 10.5h551zM586 518q-5 0 -26.5 -9.5t-52 -24.5t-67 -33t-70.5 -36.5t-62 -34.5
t-43 -26h602l-4 -7h-579l-166 -266l71 -69h532q5 0 26.5 9.5t52 24.5t67 33t70.5 36.5t62 34.5t43 26h-602l5 8h579l162 259l-54 75h-546zM1106 492l45 -61l-138 -221h-579l-37 -60h571q-11 -7 -31 -18t-44 -23l-50 -25t-48 -23t-37.5 -16.5t-19.5 -6.5h-525l-60 57l142 227
h579l36 58h-571q10 7 30.5 18t44.5 23l50 25t48 23t37.5 16.5t19.5 6.5h537z" />
    <glyph glyph-name="FL0033h" unicode="3" 
d="M754 211l-39 -62h-528l-69 -111h734l122 196l-27 32l66 30l122 196h-734l-69 -111h528l-39 -62h-428l-67 -108h428zM176 175h527l7 10h-427l100 160h427l6 10h-527l102 163h788l-148 -236l-37 -17l15 -18l-147 -235h-788zM54 0h814l159 254l-9 11l22 10l159 255h-814
l-117 -187h100l-97 -156h-100z" />
    <glyph glyph-name="FL0034h" unicode="4" horiz-adv-x="898" 
d="M159 104h439l-41 -66h208l41 66h143l70 112h-143l172 276h-279l-540 -276zM759 361l-91 -145h-193zM656 242l41 66l-129 -66h88zM209 228l568 290h315l-173 -276h143l-102 -164h-143l-42 -66h-263l42 66h-438zM95 66h439l-41 -66h288l41 66h143l118 188h-143l172 276
h-332l-580 -297zM613 254l57 29l-18 -29h-39z" />
    <glyph glyph-name="FL0035h" unicode="5" horiz-adv-x="896" 
d="M823 38l121 61l138 221h-579l37 60h571q-3 10 -15 29t-27 37.5t-28.5 32t-19.5 13.5h-620l-177 -284h579l-36 -58h-571q3 -10 15 -29t27 -37.5t28.5 -32t19.5 -13.5h537zM269 12q-8 0 -25.5 20t-36 47t-34 54.5t-19.5 42.5h602l4 7h-579l210 335h647q7 0 24.5 -20
t36.5 -47t34.5 -54.5t19.5 -42.5h-602l-5 -8h579l-162 -259l-148 -75h-546zM813 0l160 81l163 261h38q-5 17 -22.5 48.5t-38.5 62.5t-40.5 54t-27.5 23h-660l-214 -342h-38q5 -17 22.5 -48.5t38.5 -62.5t40.5 -54t27.5 -23h551z" />
    <glyph glyph-name="FL0036h" unicode="6" horiz-adv-x="891" 
d="M541 381h552q12 13 26 29.5t27 33t23 29.5t15 19h-783l-283 -454h783l95 152l-55 132h-437zM397 150l37 60h364l-37 -60h-364zM440 176h310l5 8h-310zM552 355l-5 -7h421l62 -147l-119 -189h-837l317 506h846q-37 -40 -52 -61q-15 -19 -37 -45.5t-51 -56.5h-545z
M1098 343q38 38 61 66t37 46q8 12 24.5 30.5t40.5 44.5h-876l-331 -530h863l129 206l-58 137h110z" />
    <glyph glyph-name="FL0037h" unicode="7" horiz-adv-x="723" 
d="M466 0l214 342h-129l-92 -147l-182 163l107 172h694l-331 -530h-281zM742 12l317 506h-669l-96 -153l165 -149l86 138h154l-214 -342h257zM461 262l-132 118l70 112h616l-283 -454h-203l213 342h-208z" />
    <glyph glyph-name="FL0038h" unicode="8" 
d="M1040 275l-22 -10l9 -11l-159 -254h-814l159 254l23 11l-10 10l159 255h814zM1179 518h-788l-148 -236l16 -17l-38 -18l-147 -235h788l147 235l-15 18l37 17zM446 185h264l-7 -10h-267l113 180h267l-6 -10h-264zM1013 296l-66 -30l27 -32l-122 -196h-734l122 196l67 32
l-28 30l122 196h734zM393 149h322l39 62h-265l67 108h265l39 62h-322z" />
    <glyph glyph-name="FL0039h" unicode="9" horiz-adv-x="891" 
d="M761 149h-552q-12 -13 -26.5 -29.5t-27 -33t-23 -29.5t-14.5 -19h783l283 454h-783l-95 -152l55 -132h437zM905 380l-37 -60h-364l37 60h364zM547 346h310l5 8h-310zM104 56q15 19 40 50t61 69h545l5 7h-421l-61 147l118 189h837l-317 -506h-845q13 14 23 25t15 19z
M93 57q-2 -2 -16.5 -18t-34.5 -39h875l331 530h-863l-129 -206l58 -137h-110q-45 -46 -71 -79t-40 -51z" />
    <glyph glyph-name="FL003Ah" unicode=":" horiz-adv-x="262" 
d="M277 0h-229l112 179h229zM414 220h-229l112 179h229zM509 388h-209l-98 -157h209zM372 168h-209l-98 -157h209zM267 36h-165l67 107h165zM405 256h-165l67 107h165z" />
    <glyph glyph-name="FL003Bh" unicode=";" horiz-adv-x="262" 
d="M482 380h-165l-70 -112h165zM31 -79l237 117h1l70 113l-1 -1h-164zM418 242h-209l103 164h209zM168 176h181l38 16l-113 -180h-17l-277 -137zM-43 -146l296 146h24l132 212l-55 -24h-189zM538 418h-229l-117 -188h229z" />
    <glyph glyph-name="FL003Ch" unicode="&#x3c;" horiz-adv-x="553" 
d="M236 267l122 -229h226l-120 230l403 224h-226zM648 518h306l-450 -250l132 -256h-305l-136 255zM178 267l142 -267h340l-138 267l471 263h-342z" />
    <glyph glyph-name="FL003Dh" unicode="=" horiz-adv-x="411" 
d="M254 268h308l65 103h-308zM161 118h308l64 103h-308zM308 394h358l-187 -300h-358zM103 83h380l201 322h-380z" />
    <glyph glyph-name="FL003Eh" unicode="&#x3e;" horiz-adv-x="553" 
d="M785 267l-476 -267h-340l472 267l-143 263h342zM629 518h-306l136 -250l-452 -256h305l456 255zM727 267l-408 -229h-226l406 230l-123 224h226z" />
    <glyph glyph-name="FL003Fh" unicode="?" horiz-adv-x="865" 
d="M405 342h-206q17 11 49 29.5t70.5 39.5t79.5 42t75.5 38.5t58.5 28t30 10.5h659l-224 -359h-411l-107 -171h-288zM318 183h674l210 335h-647q-5 0 -26.5 -9.5t-52 -24.5t-66.5 -33t-70 -36.5t-62.5 -34.5t-43.5 -26h602l-5 -8h-411zM576 176h-262l-103 -164h262zM431 320
h411l37 60h-571q10 7 30.5 18t44.5 23l50 25t48 23t37.5 16.5t19.5 6.5h619l-177 -284h-619zM463 38h-208l70 112h208z" />
    <glyph glyph-name="FL0040h" unicode="@" horiz-adv-x="1034" 
d="M1372 563h-925l-363 -581h650l72 116h-438l219 350h501l-127 -203h-63l91 145h-374l-147 -234h649zM682 319h138l-58 -94h-138zM668 251h82l26 42h-82zM1129 130h-705l179 286h430l-90 -144h7l94 150h-445l-187 -298h438l-104 -168h-706l395 633h981zM1436 602h-1006
l-411 -658h731l108 173h275zM698 280h57l-10 -16h-57z" />
    <glyph glyph-name="FL0041h" unicode="A" horiz-adv-x="984" 
d="M836 186l58 92l-182 -92h124zM601 130l-257 -130h-389l1050 530h336l-331 -530h-336zM686 12h319l317 506h-320l-1003 -506h348l266 135zM668 174l253 128l-80 -128h-173zM354 38h-258l899 454h282l-283 -454h-281l-61 110h200l130 208z" />
    <glyph glyph-name="FL0042h" unicode="B" 
d="M401 492l-283 -454h734l122 196l-27 32l66 30l122 196h-734zM754 211l-39 -62h-321l145 232h321l-39 -62h-265l-67 -108h265zM546 345h264l6 10h-266l-113 -180h266l7 10h-264zM1179 518l-148 -236l-37 -17l15 -18l-147 -235h-788l317 506h788zM385 530l-331 -530h814
l159 254l-9 11l22 10l159 255h-814z" />
    <glyph glyph-name="FL0043h" unicode="C" horiz-adv-x="854" 
d="M118 38h746l70 112h-538l144 231h538l69 111h-746zM391 518h800l-102 -163h-538l-112 -179h538l-103 -164h-800zM54 0h826l117 188h-539l97 155h539l117 187h-826z" />
    <glyph glyph-name="FL0044h" unicode="D" horiz-adv-x="895" 
d="M118 38h650q39 0 72 11t59.5 27.5t46 37t31.5 40.5l139 222q16 26 16.5 47.5t-10 36.5t-29.5 23.5t-42 8.5h-650zM397 150l144 231h359q1 -8 1.5 -10t-2.5 -7l-123 -197q-10 -11 -21 -17h-358zM440 176h315l112 179h-315zM391 518h677q28 0 50.5 -10t34.5 -29t11 -45
t-21 -58l-139 -222q-15 -24 -38.5 -49t-55.5 -45.5t-72 -34t-87 -13.5h-677zM54 0h690q51 0 93.5 14.5t77 37t60.5 49.5t42 53l139 222q21 34 22.5 62.5t-11.5 48.5t-37.5 31.5t-54.5 11.5h-690zM557 343h289l-97 -155h-289z" />
    <glyph glyph-name="e" unicode="E" horiz-adv-x="848" 
d="M401 492l-283 -454h739l70 112h-530l37 60h528l70 112h-528l37 59h531l69 111h-740zM1185 518l-102 -163h-531l-5 -7h529l-102 -164h-529l-5 -8h530l-103 -164h-793l317 506h794zM385 530l-331 -530h819l117 188h-2l97 155h3l117 187h-820z" />
    <glyph glyph-name="FL0066h" unicode="F" horiz-adv-x="848" 
d="M401 492l-283 -454h209l107 172h528l70 112h-528l37 59h531l69 111h-740zM1185 518l-102 -163h-531l-5 -7h529l-102 -164h-529l-108 -172h-263l317 506h794zM385 530l-331 -530h289l107 172h528l107 171h3l117 187h-820z" />
    <glyph glyph-name="FL0047h" unicode="G" horiz-adv-x="891" 
d="M860 309l-99 -159h-364l144 231h552q12 13 26 29.5t27 33t23 29.5t15 19h-783l-283 -454h783l95 152zM1032 205l-121 -193h-837l317 506h846q-37 -40 -52 -61q-15 -19 -37 -45.5t-51 -56.5h-545l-112 -179h310l111 178zM1098 343q38 38 61 66t37 46q8 12 24.5 30.5
t40.5 44.5h-876l-331 -530h863l132 212l-150 131h199zM557 343h285l-97 -155h-285z" />
    <glyph glyph-name="FL0048h" unicode="H" horiz-adv-x="868" 
d="M118 38h207l107 172h346l-107 -172h207l283 454h-207l-106 -170h-346l106 170h-207zM391 518h261l-107 -170h292l107 170h261l-317 -506h-261l108 172h-292l-108 -172h-261zM54 0h287l107 172h266l-107 -172h287l331 530h-287l-106 -170h-266l106 170h-287z" />
    <glyph glyph-name="FL0069h" unicode="I" horiz-adv-x="323" 
d="M243 -99l369 590h-225l-293 -468zM63 8l319 510h269l-415 -664zM233 -167l435 697h-289l-330 -529z" />
    <glyph glyph-name="FL004Ah" unicode="J" horiz-adv-x="793" 
d="M467 268l-280 -118l-70 -112h686l283 454h-205l-213 -342h-274zM437 176h220l214 342h259l-317 -506h-740l96 153l354 149zM549 335l-388 -163l-107 -172h765l331 530h-285l-214 -342h-194z" />
    <glyph glyph-name="FL004Bh" unicode="K" horiz-adv-x="850" 
d="M401 492l-283 -454h208l107 172h322l-107 -172h208l177 284h-214l358 170h-252l-365 -170h-57l106 170h-208zM654 518l-107 -170h20l366 170h345l-359 -170h157l-210 -336h-262l108 172h-267l-108 -172h-263l317 506h263zM385 530l-331 -530h288l107 172h242l-107 -172
h288l225 360h-129l358 170h-389l-366 -170h-4l106 170h-288z" />
    <glyph glyph-name="FL006Ch" unicode="L" horiz-adv-x="779" 
d="M117 38h531q4 0 19.5 6.5t37.5 16.5t47.5 23t49.5 25t44 23t30 18h-482l213 342h-207zM390 518h260l-214 -342h514q-15 -10 -43 -26t-62 -34.5t-69.5 -36.5t-66 -33t-52 -24.5t-26.5 -9.5h-558zM54 0h570q5 0 29.5 10.5t58.5 28t74.5 38.5t79 42t70 39.5t48.5 29.5h-528
l214 342h-285z" />
    <glyph glyph-name="FL004Dh" unicode="M" horiz-adv-x="1101" 
d="M835 0l214 342h-96l-232 -371l-192 164l130 207h-96l-214 -342h-294l331 530h1073l-331 -530h-293zM1122 12l317 506h-1047l-317 -506h268l214 342h122l-132 -212l174 -150l226 362h122l-214 -342h267zM723 38l-141 118l140 224h-176l-213 -342h-214l283 454h992
l-283 -454h-212l213 342h-176z" />
    <glyph glyph-name="FL004Eh" unicode="N" horiz-adv-x="1019" 
d="M943 -99l369 590h-210l-170 -272l-253 272h-277l-293 -468h353l202 114h-273l131 211zM520 299l-85 -136h211zM682 124l-225 -128h-392l326 522h314l230 -249l156 249h266l-417 -667zM938 -172l438 702h-291l-149 -239l-220 239h-331l-341 -546h410l219 125zM612 176
h-156l62 100z" />
    <glyph glyph-name="FL004Fh" unicode="O" horiz-adv-x="896" 
d="M118 38h788l283 454h-788zM912 381l-144 -231h-371l144 231h371zM440 176h317l112 179h-317zM391 518h842l-317 -506h-842zM54 0h868l331 530h-868zM557 343h291l-97 -155h-291z" />
    <glyph glyph-name="FL0050h" unicode="P" 
d="M118 38h207l214 343h321l-44 -71h-265l-70 -112h471l183 294h-734zM391 518h788l-217 -346h-525l103 164h264l12 19h-266l-215 -343h-261zM54 0h287l100 160h527l231 370h-814z" />
    <glyph glyph-name="FL0071h" unicode="Q" horiz-adv-x="846" 
d="M110 23h434l47 -110h230l-45 110h72l292 467h-738zM466 232l34 -94h-109l148 237h322l-136 -218l-29 75h-230zM446 182l-11 -17h17zM723 258l14 -37l80 128h-267l-57 -91h230zM391 516h793l-324 -520h-35l44 -109h-306l-45 109h-451zM46 -16h458l46 -109h344l-45 109h15
l341 545h-818zM513 270l42 67h243l-54 -86l-7 19h-224z" />
    <glyph glyph-name="FL0052h" unicode="R" horiz-adv-x="793" 
d="M736 262l280 118l70 112h-686l-283 -454h206l213 342h273zM766 354h-220l-214 -342h-259l317 506h740l-96 -153l-354 -149zM655 195l388 163l107 172h-765l-331 -530h284l214 342h195z" />
    <glyph glyph-name="FL0053h" unicode="S" horiz-adv-x="896" 
d="M401 492l-176 -282h579l-37 -60h-571q3 -10 15 -29t27 -37.5t28.5 -32t19.5 -13.5h620l177 284h-579l36 58h571q-3 10 -15 29t-27 37.5t-28.5 32t-19.5 13.5h-620zM1038 518q7 0 24.5 -20t36.5 -47t34.5 -54.5t19.5 -42.5h-602l-4 -7h579l-210 -335h-647q-8 0 -25.5 20
t-36 47t-34 54.5t-19.5 42.5h602l5 8h-579l209 334h647zM385 530l-214 -342h-38q5 -17 22.5 -48.5t38.5 -62.5t40.5 -54t27.5 -23h660l214 342h38q-5 17 -22.5 48.5t-38.5 62.5t-40.5 54t-27.5 23h-660z" />
    <glyph glyph-name="FL0054h" unicode="T" horiz-adv-x="848" 
d="M261 -52h115q1 0 23.5 8.5t58 23t80.5 32t91 36t89 36t75 30.5l44 22h-225l153 245h307l69 110h-740l-69 -110h225zM513 355h-224l101 162h794l-101 -162h-307l-121 -193h278l-139 -70q-33 -14 -77.5 -31.5t-92.5 -36.5t-94.5 -37.5t-83.5 -33t-61 -23.5t-26 -9h-144z
M194 -91h157q3 0 27.5 9t63 23.5t86 33.5t96.5 38t94.5 37.5t79.5 32.5l181 92h-303l105 168h307l117 186h-820l-117 -186h223z" />
    <glyph glyph-name="FL0055h" unicode="U" 
d="M929 492l-213 -342h-321l213 342h-207l-283 -454h734l283 454h-206zM1179 518l-317 -506h-788l317 506h261l-214 -342h266l214 342h261zM913 530l-214 -342h-241l214 342h-287l-331 -530h814l331 530h-286z" />
    <glyph glyph-name="FL0056h" unicode="V" horiz-adv-x="984" 
d="M637 492h-258l333 -454h282l283 454h-281l-197 -110h200l-130 -207zM874 228l80 128h-173zM760 383l243 135h319l-317 -506h-320l-369 506h348zM675 530h-389l388 -530h336l331 530h-336l-234 -130zM812 344h123l-57 -91z" />
    <glyph glyph-name="FL0057h" unicode="W" horiz-adv-x="1101" 
d="M1006 492l-287 -118l-140 -224h-176l213 342l-287 -118l-210 -336h992l283 454h-212l-213 -342h-176zM836 176h122l214 342h267l-317 -506h-1047l235 376l362 150l-226 -362h122l132 212l362 150zM1088 559l-396 -164l-130 -207h-96l232 371l-396 -164l-247 -395h1073
l331 530h-293l-214 -342h-96z" />
    <glyph glyph-name="FL0058h" unicode="X" horiz-adv-x="867" 
d="M610 492h-232l161 -225l-444 -229h232l245 121l96 -121h231l-158 229l441 225h-231l-246 -121zM725 403l234 115h319l-494 -251l176 -255h-318l-90 114l-233 -114h-318l495 255l-179 251h319zM647 530h-358l187 -263l-518 -267h358l226 111l90 -111h357l-184 267l515 263
h-357l-229 -112z" />
    <glyph glyph-name="FL0059h" unicode="Y" horiz-adv-x="868" 
d="M894 0h-597l-92 172h-44l224 358h287l-106 -170h266l106 170h287zM1205 518h-261l-107 -170h-292l107 170h-261l-209 -334h553l-6 -10h-504l85 -162h578zM878 38h-541l-60 110h462l39 62h-553l176 282h207l-106 -170h346l106 170h207z" />
    <glyph glyph-name="FL005Ah" unicode="Z" horiz-adv-x="896" 
d="M163 0l-58 81l163 261h-38q17 11 49 29.5t70.5 39.5t79.5 42t75.5 38.5t59 28t29.5 10.5h660l-214 -342h38q-17 -12 -49 -30t-70.5 -39t-79.5 -42t-75.5 -38.5t-59 -28t-29.5 -10.5h-551zM721 12q5 0 26.5 9.5t52 24.5t67 33t70.5 36.5t62 34.5t43 26h-602l4 7h579
l210 335h-647q-5 0 -26.5 -9.5t-52 -24.5t-67 -33t-70.5 -36.5t-62 -34.5t-43 -26h602l-5 -8h-579l-162 -259l54 -75h546zM202 38l-46 61l138 221h579l37 60h-571q10 7 30.5 18t44.5 23l50 25t48 23t37.5 16.5t19.5 6.5h620l-177 -284h-579l-36 -58h571q-11 -7 -31 -18
t-44 -23l-50 -25t-48 -23t-37.5 -16.5t-19.5 -6.5h-536z" />
    <glyph glyph-name="FL005Bh" unicode="[" horiz-adv-x="503" 
d="M441 563l-363 -581h399l72 116h-204l219 350h204l72 115h-399zM881 589l-104 -167h-204l-187 -298h204l-104 -168h-449l395 633h449zM428 602l-411 -658h473l121 193h-204l170 272h204l120 193h-473z" />
    <glyph glyph-name="FL005Ch" unicode="\" horiz-adv-x="889" 
d="M1009 0h-364l-355 530h365zM642 518h-323l338 -506h323zM921 38h-238l-305 454h238z" />
    <glyph glyph-name="FL005Dh" unicode="]" horiz-adv-x="503" 
d="M901 602l-411 -658h-473l121 193h204l170 272h-204l120 193h473zM432 589l-104 -167h204l-187 -298h-204l-104 -168h449l395 633h-449zM840 563l-363 -581h-399l72 116h204l219 350h-204l72 115h399z" />
    <glyph glyph-name="FL005Eh" unicode="^" horiz-adv-x="984" 
d="M759 38h258l-334 454h-281l-283 -454h280l198 110h-200l130 208zM521 302l-80 -128h174zM634 147l-241 -135h-319l317 506h320l369 -506h-348zM720 0h390l-388 530h-337l-331 -530h337l233 130zM585 186h-124l58 92z" />
    <glyph glyph-name="FL005Fh" unicode="_" horiz-adv-x="411" 
d="M103 26h308l50 79h-308zM139 123h358l-72 -115h-358zM51 0h380l82 131h-380z" />
    <glyph glyph-name="FL0060h" unicode="`" horiz-adv-x="320" 
d="M288 239l-68 131h273l50 -131h-255zM527 248l-44 114h-245l61 -114h228zM321 266l-41 78h180l30 -78h-169z" />
    <glyph glyph-name="a" unicode="a" horiz-adv-x="839" 
d="M401 492l-283 -454h207l100 160h317l-100 -160h207l283 454h-731zM856 381l-44 -71h-317l44 71h317zM538 336h263l12 19h-263zM1176 518l-317 -506h-261l100 160h-263l-100 -160h-262l317 506h786zM385 530l-331 -530h287l100 160h237l-100 -160h287l331 530h-811z" />
    <glyph glyph-name="FL0062h" unicode="b" 
d="M401 492l-283 -454h734l122 196l-27 32l66 30l122 196h-734zM754 211l-39 -62h-321l145 232h321l-39 -62h-265l-67 -108h265zM546 345h264l6 10h-266l-113 -180h266l7 10h-264zM1179 518l-148 -236l-37 -17l15 -18l-147 -235h-788l317 506h788zM385 530l-331 -530h814
l159 254l-9 11l22 10l159 255h-814z" />
    <glyph glyph-name="c" unicode="c" horiz-adv-x="822" 
d="M117 38h558q4 0 20 6.5t38 16.5t47.5 23t49.5 25t44 23t30 18h-509l144 231h495q12 13 25.5 29.5t26.5 33t23 29.5t15 19h-724zM390 518h787q-37 -40 -52 -61q-15 -19 -37 -45.5t-51 -56.5h-487l-112 -179h540q-15 -10 -43 -26t-62 -34.5t-70 -36.5t-66.5 -33t-52 -24.5
t-26.5 -9.5h-585zM54 0h597q5 0 29.5 10.5t59 28t75 38.5t79 42t70.5 39.5t49 29.5h-556l97 155h484q38 38 60.5 66t36.5 46q9 12 25.5 30.5t39.5 44.5h-815z" />
    <glyph glyph-name="d" unicode="d" horiz-adv-x="847" 
d="M118 38h603q39 0 72 11t59 27.5t45.5 37t31.5 40.5l139 222q16 26 16.5 47.5t-9.5 36.5t-29 23.5t-42 8.5h-603zM395 150l144 231h315q0 -8 1 -10t-3 -7l-123 -197q-4 -5 -9.5 -9.5t-10.5 -7.5h-314zM438 176h270l112 179h-270zM391 518h630q28 0 50.5 -10t34.5 -29
t10.5 -45t-21.5 -58l-139 -222q-15 -24 -38.5 -49t-55.5 -45.5t-72 -34t-86 -13.5h-630zM54 0h643q50 0 93 14.5t77.5 37t60 49.5t41.5 53l139 222q21 34 22.5 62.5t-11.5 48.5t-37 31.5t-54 11.5h-643zM555 343h245l-97 -155h-245z" />
    <glyph glyph-name="FL0065h" unicode="e" horiz-adv-x="886" 
d="M118 38h620q4 0 19.5 6.5t37.5 16.5t48 23l50 25t44 23t31 18h-571l37 60h532l70 112h-532l37 59h556q12 13 26 29.5t27 33t23 29.5t15 19h-787zM391 518h850q-37 -40 -52 -61q-15 -19 -37 -45.5t-51 -56.5h-549l-5 -7h532l-102 -164h-532l-5 -8h602q-15 -10 -43 -26
t-62 -34.5t-70.5 -36.5t-67 -33t-52 -24.5t-26.5 -9.5h-647zM54 0h660q5 0 29.5 10.5t59 28t75.5 38.5t79.5 42t70.5 39.5t49 29.5h-85l97 155h13q38 38 61 66t37 46q8 12 24.5 30.5t40.5 44.5h-880z" />
    <glyph glyph-name="FL0067h" unicode="f" horiz-adv-x="886" 
d="M118 38h209l107 172h532l70 112h-532l37 59h556q12 13 26 29.5t27 33t23 29.5t15 19h-787zM391 518h850q-37 -40 -52 -61q-15 -19 -37 -45.5t-51 -56.5h-549l-5 -7h532l-102 -164h-532l-108 -172h-263zM54 0h289l107 172h532l107 171h13q38 38 61 66t37 46
q8 12 24.5 30.5t40.5 44.5h-880z" />
    <glyph glyph-name="FL006Dh" unicode="g" horiz-adv-x="891" 
d="M860 309l-99 -159h-364l144 231h552q12 13 26 29.5t27 33t23 29.5t15 19h-783l-283 -454h783l95 152zM1032 205l-121 -193h-837l317 506h846q-37 -40 -52 -61q-15 -19 -37 -45.5t-51 -56.5h-545l-112 -179h310l111 178zM1098 343q38 38 61 66t37 46q8 12 24.5 30.5
t40.5 44.5h-876l-331 -530h863l132 212l-150 131h199zM557 343h285l-97 -155h-285z" />
    <glyph glyph-name="FL0068h" unicode="h" horiz-adv-x="868" 
d="M118 38h280l196 110h-201l39 62h346l-107 -172h207l283 454h-207l-106 -170h-346l106 170h-207zM391 518h261l-107 -170h292l107 170h261l-317 -506h-261l108 172h-292l-6 -10h244l-290 -162h-317zM54 0h336l305 172h19l-107 -172h287l331 530h-287l-106 -170h-266
l106 170h-287z" />
    <glyph glyph-name="FL0049h" unicode="i" horiz-adv-x="319" 
d="M48 0l331 530h288l-331 -530h-288zM333 12l317 506h-268l-317 -506h268zM104 38l283 454h224l-283 -454h-224z" />
    <glyph glyph-name="FL006Ah" unicode="j" horiz-adv-x="793" 
d="M467 268l-280 -118l-70 -112h686l283 454h-205l-213 -342h-274zM437 176h220l214 342h259l-317 -506h-740l96 153l354 149zM549 335l-388 -163l-107 -172h765l331 530h-285l-214 -342h-194z" />
    <glyph glyph-name="J" unicode="k" horiz-adv-x="850" 
d="M385 530h288l-106 -170h4l366 170h389l-358 -170h129l-225 -360h-288l105 168l-299 -168h-336zM74 12h318l290 162h-243l6 10h267l-108 -172h262l210 336h-157l359 170h-345l-366 -170h-20l107 170h-263zM401 492h208l-106 -170h57l365 170h252l-358 -170h214l-177 -284
h-208l107 172h-322l-39 -62h201l-196 -110h-281z" />
    <glyph glyph-name="FL004Ch" unicode="l" horiz-adv-x="793" 
d="M455 188h195l92 147l184 -163l-107 -172h-765l331 530h284zM649 518h-259l-317 -506h740l96 153l-168 149l-86 -138h-220zM739 268l134 -118l-70 -112h-686l283 454h206l-213 -342h273z" />
    <glyph glyph-name="m" unicode="m" horiz-adv-x="851" 
d="M118 38h207l72 116l11 -116h161l155 116l-72 -116h209l283 454h-200l-352 -294l8 294h-199zM391 518h243l-10 -268l321 268h243l-317 -506h-264l36 57l-76 -57h-191l-4 57l-36 -57h-262zM54 0h287l19 31l3 -31h203l41 31l-19 -31h289l331 530h-264l-305 -254l9 254h-263z
" />
    <glyph glyph-name="n" unicode="n" horiz-adv-x="1019" 
d="M943 -99l369 590h-210l-170 -272l-253 272h-277l-293 -468h353l202 114h-273l131 211zM520 299l-85 -136h211zM682 124l-225 -128h-392l326 522h314l230 -249l156 249h266l-417 -667zM938 -172l438 702h-291l-149 -239l-220 239h-331l-341 -546h410l219 125zM612 176
h-156l62 100z" />
    <glyph glyph-name="o" unicode="o" 
d="M118 38h734l283 454h-734zM860 381l-144 -231h-321l144 231h321zM438 176h266l112 179h-266zM391 518h788l-317 -506h-788zM54 0h814l331 530h-814zM555 343h241l-97 -155h-241z" />
    <glyph glyph-name="p" unicode="p" 
d="M118 38h207l214 343h321l-44 -71h-265l-70 -112h471l183 294h-734zM391 518h788l-217 -346h-525l103 164h264l12 19h-266l-215 -343h-261zM54 0h287l100 160h527l231 370h-814z" />
    <glyph glyph-name="FL0051h" unicode="q" 
d="M110 28h432l29 -70h229l-28 70h72l290 464h-734zM463 236l35 -93h-109l147 235h321l-135 -217l-29 75h-230zM444 187l-11 -18h17zM720 262l14 -37l79 127h-266l-56 -90h229zM390 518h788l-323 -516h-35l27 -71h-304l-28 71h-448zM47 -10h456l27 -71h339l-26 71h18
l337 540h-814zM511 274l41 66h241l-53 -85l-7 19h-222z" />
    <glyph glyph-name="FL0072h" unicode="r" horiz-adv-x="845" 
d="M118 38h208l214 343h322l-44 -71h-266l-70 -112l160 -160h252l-155 160h217l183 294h-738zM391 518h792l-217 -346h-154l156 -160h-350l-172 172l95 152h266l12 19h-267l-215 -343h-263zM54 0h288l101 162l163 -162h397l-155 160h124l231 370h-818z" />
    <glyph glyph-name="FL0073h" unicode="s" horiz-adv-x="864" 
d="M1157 492h-756l-176 -282h548l-37 -60h-548l-70 -112h756l177 284h-548l36 58h548zM1098 354h-548l-4 -7h548l-210 -335h-810l103 164h548l5 8h-548l209 334h810zM1221 530h-836l-331 -530h836z" />
    <glyph glyph-name="t" unicode="t" horiz-adv-x="848" 
d="M288 -52h89q1 0 23.5 8.5t58 23t80.5 32t91 36t89 36t75 30.5l44 22h-225l153 245h307l69 110h-740l-69 -110h225zM515 355h-225l101 162h794l-101 -162h-307l-121 -193h278l-139 -70q-33 -14 -77.5 -31.5t-92.5 -36.5t-94.5 -37.5t-83.5 -33t-61 -23.5t-26 -9h-116z
M224 -91h128q3 0 27.5 9t63 23.5t86 33.5t96.5 38t94.5 37.5t79.5 32.5l181 92h-303l105 168h307l117 186h-820l-117 -186h226z" />
    <glyph glyph-name="FL0075h" unicode="u" 
d="M929 492l-213 -342h-321l213 342h-207l-283 -454h734l283 454h-206zM1179 518l-317 -506h-788l317 506h261l-214 -342h266l214 342h261zM913 530l-214 -342h-241l214 342h-287l-331 -530h814l331 530h-286z" />
    <glyph glyph-name="FL00BAh" unicode="v" horiz-adv-x="806" 
d="M381 38h177l564 454h-201l-346 -288l3 288h-200zM347 518h263l-3 -262l316 262h263l-630 -506h-207zM335 0h221l659 530h-293l-301 -250l3 250h-292z" />
    <glyph glyph-name="FL0077h" unicode="w" horiz-adv-x="1009" 
d="M634 38h202l489 454h-202l-246 -239l67 239h-185l-219 -239l39 239h-200l-73 -454h203l168 167zM627 127l-116 -115h-240l83 506h260l-31 -187l172 187h226l-54 -187l194 187h263l-547 -506h-239zM580 0h259l572 530h-291l-170 -163l47 163h-244l-152 -165l28 165h-287
l-86 -530h257l90 90z" />
    <glyph glyph-name="FL00BCh" unicode="x" horiz-adv-x="889" 
d="M616 492h-238l169 -225l-452 -229h238l250 121l100 -121h238l-166 229l449 225h-238l-250 -121zM736 403l238 115h327l-501 -251l184 -255h-327l-94 115l-238 -115h-327l505 255l-188 251h327zM653 530h-368l196 -264l-525 -266h366l232 112l93 -112h366l-193 266
l526 264h-368l-233 -112z" />
    <glyph glyph-name="FL0079h" unicode="y" horiz-adv-x="868" 
d="M615 -51l159 255h207l180 288h-207l-108 -174h-346l108 174h-207l-180 -288h345l-41 -67h-226l16 -22q24 -20 59.5 -48t68.5 -54.5t57 -45t26 -18.5h89zM509 -78q-3 0 -29 19t-60.5 46t-71.5 56.5t-61 49.5l-52 70h279l9 14h-345l213 341h261l-108 -173h292l108 173h261
l-213 -341h-207l-160 -255h-116zM631 -90l159 255h207l228 365h-287l-108 -173h-266l108 173h-287l-228 -365h55l60 -81q16 -14 38.5 -32.5t47.5 -37.5t49.5 -38t44.5 -33.5t33.5 -23.5t16.5 -9h129z" />
    <glyph glyph-name="FL007Ah" unicode="z" horiz-adv-x="896" 
d="M1253 530l-214 -342h38q-17 -12 -49 -30t-70.5 -39t-79.5 -42t-75.5 -38.5t-59 -28t-29.5 -10.5h-660l214 342h-38q17 11 49 29.5t70.5 39.5t79.5 42t75.5 38.5t59 28t29.5 10.5h660zM586 518q-5 0 -26.5 -9.5t-52 -24.5t-67 -33t-70.5 -36.5t-62 -34.5t-43 -26h602
l-4 -7h-579l-210 -335h647q5 0 26.5 9.5t52 24.5t67 33t70.5 36.5t62 34.5t43 26h-602l5 8h579l209 334h-647zM1189 492l-176 -282h-579l-37 -60h571q-11 -7 -31 -18t-44 -23l-50 -25t-48 -23t-37.5 -16.5t-19.5 -6.5h-620l177 284h579l36 58h-571q10 7 30.5 18t44.5 23
l50 25t48 23t37.5 16.5t19.5 6.5h620z" />
    <glyph glyph-name="FL007Bh" unicode="{" horiz-adv-x="630" 
d="M227 217h112l-147 -235h413l72 116h-212l219 350h212l72 115h-413l-144 -230h-112zM289 359h112l144 230h465l-104 -167h-211l-187 -298h211l-104 -168h-465l146 235h-112zM164 178h112l-146 -234h489l121 193h-211l170 272h211l120 193h-489l-144 -231h-112z" />
    <glyph glyph-name="FL007Ch" unicode="|" horiz-adv-x="266" 
d="M-46 -151l435 697h233l-330 -529zM286 24l319 510h-213l-415 -664zM28 -83l369 590h169l-293 -468z" />
    <glyph glyph-name="FL007Dh" unicode="}" horiz-adv-x="630" 
d="M765 178h-112l-146 -234h-489l121 193h211l170 272h-211l120 193h489l-144 -231h112zM866 359h-112l144 230h-465l-104 -167h211l-187 -298h-211l-104 -168h465l146 235h112zM752 217h-112l-147 -235h-413l72 116h211l219 350h-211l72 115h413l-144 -230h112z" />
    <glyph glyph-name="FL007Eh" unicode="~" horiz-adv-x="984" 
d="M560 344l-58 -92l182 92h-124zM722 530l70 -131l259 131h390l-1050 -530h-337l331 530h337zM391 518l-317 -506h320l1003 506h-348l-268 -135l-71 135h-319zM728 356l-254 -129l80 129h174zM1042 492h258l-900 -454h-281l283 454h280l62 -110h-200l-130 -208z" />
    <glyph glyph-name="FL007Fh" horiz-adv-x="4" 
 />
    <glyph glyph-name="FL00A1h" unicode="&#xa1;" horiz-adv-x="262" 
d="M379 530h229l-331 -530h-229zM65 12h209l209 334h-209zM279 354h209l103 164h-209zM387 492h165l-70 -112h-165zM280 320h165l-176 -282h-165z" />
    <glyph glyph-name="FL00A2h" unicode="&#xa2;" horiz-adv-x="822" 
d="M118 40h295l-69 -110h210l69 110h53q4 0 20 6.5t38.5 17t48.5 24t50 26.5t44 24.5t31 18.5h-212l151 242h198q13 13 27 31t27.5 34.5t24 30.5t15.5 20h-219l69 110h-210l-69 -110h-295zM550 399h87l-151 -242h-87zM443 184h33l117 188h-33zM405 542h295l68 110h264
l-68 -110h228q-19 -20 -32.5 -36t-21.5 -27q-15 -20 -37.5 -47.5t-53.5 -59.5h-190l-117 -188h243q-15 -11 -43.5 -27.5t-63 -35.5t-71 -38t-67.5 -35t-52.5 -25.5t-26.5 -9.5h-26l-69 -110h-264l69 110h-295zM54 0h295l-69 -110h289l69 110h13q5 0 29.5 11.5t59.5 29
t76.5 40t80.5 44t71.5 41t50.5 31.5h-258l101 162h186q38 40 62.5 69t38.5 49q9 12 25.5 31.5t41.5 46.5h-231l68 109h-289l-68 -109h-295zM564 359h9l-101 -162h-9z" />
    <glyph glyph-name="FL00A3h" unicode="&#xa3;" horiz-adv-x="804" 
d="M223 207h136l-35 -57h-137l-70 -112h697l69 111h-355l39 62h249l67 108h-249l39 62h133l69 111h-338l-108 -173h-136zM283 345h136l108 173h392l-102 -163h-133l-6 -10h249l-100 -160h-249l-7 -10h355l-102 -163h-751l103 164h137l3 5h-136zM54 0h776l117 187h-106
l106 170h-116l108 173h-418l-108 -173h-135l-106 -169h-1z" />
    <glyph glyph-name="FL00A4h" unicode="&#xa4;" horiz-adv-x="889" 
d="M616 492h-238l128 -170l-70 -112l-341 -172h238l236 114h20l94 -114h238l-119 164l80 128l322 162h-238l-234 -113h-22zM747 310l-57 -91h-137l57 91h137zM595 244h82l26 41h-82zM735 405h4l235 113h327l-400 -201l-64 -103l147 -202h-327l-93 114h-2l-237 -114h-327
l418 211l54 86l-154 209h326zM653 530h-368l169 -227l-47 -75l-452 -228h367l232 112l93 -112h367l-161 220l57 91l436 219h-368l-234 -112zM627 273h57l-11 -17h-57z" />
    <glyph glyph-name="FL00A5h" unicode="&#xa5;" horiz-adv-x="1028" 
d="M1159 492h-210l-106 -170h-337l106 170h-210l-176 -282h547l-39 -62h-454l61 -110h535l87 140h162l45 72h-162l19 30h161l45 72h-161zM1116 377h161l-64 -102h1l-77 -123h-162l-88 -140h-573l-88 162h497l6 10h-547l209 334h266l-107 -170h281l107 170h266zM1224 530
h-292l-106 -170h-255l106 170h-292l-224 -358h45l96 -172h591l87 140h161l92 147h-1l64 102h-160z" />
    <glyph glyph-name="FL00A6h" unicode="&#xa6;" horiz-adv-x="266" 
d="M36 -70h169l435 695h-169zM465 652h213l-468 -749h-213zM-21 -110h233l484 774h-233z" />
    <glyph glyph-name="FL00A7h" unicode="&#xa7;" horiz-adv-x="889" 
d="M436 210l-341 -172h238l236 114h202l111 178l322 162h-238l-234 -113h-190zM747 310l-57 -91h-137l57 91h137zM595 244h82l26 41h-82zM-2 12l418 211l114 182h209l235 113h327l-400 -201l-119 -191h-220l-237 -114h-327zM322 0l236 114h229l123 197l436 219h-368
l-234 -113h-218l-119 -189l-452 -228h367zM627 273h57l-11 -17h-57z" />
    <glyph glyph-name="FL00A8h" unicode="&#xa8;" horiz-adv-x="575" 
d="M475 238h-273l82 131h273zM557 369h273l-82 -131h-273zM492 246h249l72 115h-249zM540 361h-249l-72 -115h249zM453 264h-198l49 79h198zM577 343h198l-49 -79h-198z" />
    <glyph glyph-name="copyright" unicode="&#xa9;" horiz-adv-x="248" 
d="M465 496q-21 0 -44 -10q-28 -10 -48 -29q-12 -11 -21 -20t-15 -20q-14 -22 -14 -39q-1 -17 10 -30q15 -10 33 -10q2 0 14 2.5t32 7.5q14 6 25.5 13t22.5 17t20 19t16 20q12 22 14 40t-12 29q-11 10 -33 10zM457 483q19 0 28 -8q10 -10 10 -24q-3 -15 -13 -34
q-5 -8 -12.5 -16t-15.5 -16q-12 -9 -21.5 -15t-19.5 -10q-21 -8 -38 -8q-15 0 -28 8q-5 6 -7.5 11.5t-0.5 13.5q0 15 11 32q9 16 30 34q20 17 40 24.5t37 7.5zM434 405q-17 -20 -38 -20q-28 0 -7 32q10 17 23 25.5t26 8.5q16 0 13 -17l14 3q8 25 -20 25q-20 0 -38 -11.5
t-32 -33.5t-10.5 -33.5t22.5 -11.5q31 0 58 29zM409 406q3 0 15 13q3 10 0 10q-6 0 -13 -12q-8 -11 -2 -11zM479 518q26 0 41 -12q18 -15 15 -39v1q-2 -23 -18 -51q-17 -27 -44 -49q-15 -14 -30.5 -23t-34.5 -17q-50 -11 -55 -11q-28 0 -39 10q-8 9 -13 18.5t-3 22.5
q0 23 17 49q8 14 18.5 25.5t24.5 23.5q30 25 65 40q30 12 56 12zM485 528q-28 0 -62 -14q-38 -15 -71 -43q-14 -13 -25.5 -25.5t-21.5 -28.5q-19 -30 -19 -54q0 -14 4 -23.5t12 -19.5q18 -13 45 -13q8 0 61 13q21 9 38.5 19.5t34.5 25.5l-3 -2q32 27 49 54q19 31 20 56v-1
q3 27 -18 42h1q-16 14 -45 14z" />
    <glyph glyph-name="FL00AAh" unicode="&#xaa;" horiz-adv-x="436" 
d="M408 514l-124 -199h95l47 75h145l-47 -75h94l124 199h-334zM618 465l-17 -26h-145l17 26h145zM782 537l-153 -244h-144l46 74h-95l-46 -74h-144l153 244h383zM393 547l-166 -265h167l47 75h72l-47 -75h167l166 265h-406z" />
    <glyph glyph-name="FL00ABh" unicode="&#xab;" horiz-adv-x="318" 
d="M314 -34l-58 96l-60 -96l-83 137l200 319l255 139l-62 -99l180 99l-178 -284l-31 -14l12 -16zM475 240l-18 23l45 21l159 253l-181 -98l62 98l-222 -121l-192 -307l71 -120l61 97l58 -97zM338 263l7 2l-4 -5zM326 39l-48 83l176 281l152 83l-117 -187l-75 -35l30 -37z
M207 39l-48 83l176 281l152 83l-117 -187l-74 -35l29 -37z" />
    <glyph glyph-name="FL00ACh" unicode="&#xac;" horiz-adv-x="411" 
d="M262 280l-61 -98h202l-58 -93h106l119 191h-308zM609 302l-147 -235h-155l58 93h-203l89 142h358zM247 313l-102 -163h202l-58 -93h178l160 256h-380z" />
    <glyph glyph-name="FL00ADh" unicode="&#xad;" horiz-adv-x="334" 
d="M176 147h235l49 78h-235zM213 243h281l-71 -114h-281zM125 120h303l82 131h-303z" />
    <glyph glyph-name="registered" unicode="&#xae;" horiz-adv-x="248" 
d="M466 497q-10 0 -21.5 -2.5t-23.5 -7.5q-26 -10 -48 -29q-24 -21 -36 -40q-14 -22 -13 -39q-2 -11 1.5 -17.5t8.5 -12.5q13 -10 33 -10q2 0 13.5 2.5t32.5 7.5q14 6 25.5 12.5t22.5 17.5q22 19 35 39q14 22 14 40q3 18 -12 29q-13 10 -32 10zM457 484q19 0 28 -8
q11 -10 10 -25t-13 -33q-5 -8 -12.5 -16.5t-15.5 -16.5q-11 -8 -20.5 -14t-19.5 -10q-19 -8 -38 -8t-28 8q-11 10 -9 24q0 16 11 33t30 33q20 17 40 25t37 8zM355 375h14l23 36h7q7 0 9 -3q4 -2 2 -20l-1 -13h18l-1 16q0 9 -0.5 14t-5.5 8q11 0 22 7t16 16q7 8 5 13
q-2 6 -5 8q-5 3 -21 3h-29zM399 422l16 26h15q13 0 13 -1q7 -3 1 -12q-4 -6 -10 -9.5t-19 -3.5h-16zM452 406q0 1 3 3l-4 -2v-1h1zM479 519q25 0 41 -13q18 -13 15 -38q-2 -23 -18 -50q-15 -26 -44 -50q-15 -13 -30.5 -22t-33.5 -17q-25 -5 -38.5 -8t-16.5 -3q-28 0 -39 10
q-18 18 -17 40q1 24 17 50q8 14 19 25.5t25 23.5t30.5 22t33.5 17q32 13 56 13zM486 529q-29 0 -62 -14q-42 -17 -71 -43q-14 -13 -26 -25.5t-22 -28.5q-19 -30 -19 -55q0 -14 4.5 -23.5t12.5 -18.5q18 -13 44 -13q7 0 61 12q13 6 23.5 11.5t20.5 11.5h13v9q7 4 16 13l-3 -2
q31 26 49 55q18 28 20 55h1q1 25 -18 42h1q-17 14 -45 14zM412 435q3 7 9 11l4 -11l-18 -11q0 3 5 11z" />
    <glyph glyph-name="FL00AFh" unicode="&#xaf;" horiz-adv-x="411" 
d="M253 265h308l48 78h-308zM288 361h358l-72 -114h-358zM200 239h380l82 131h-380z" />
    <glyph glyph-name="FL00B0h" unicode="&#xb0;" horiz-adv-x="262" 
d="M460 344h-165l-49 -78h165zM379 290h-71l19 30h71zM422 248h-209l71 114h209zM508 370h-229l-82 -131h229z" />
    <glyph glyph-name="FL00B1h" unicode="&#xb1;" horiz-adv-x="411" 
d="M496 493l-66 -106h-101l-70 -112h101l-68 -108h107l68 108h100l70 112h-100l66 106h-107zM181 150l-70 -112h308l70 112h-308zM274 176l46 73h-102l102 164h102l66 106h155l-66 -106h101l-102 -164h-101l-46 -73h101l-103 -164h-358l103 164h102zM168 188l-117 -188h380
l117 188h-101l31 49h101l118 188h-101l66 106h-178l-66 -106h-101l-118 -188h101l-31 -49h-101z" />
    <glyph glyph-name="FL00B2h" unicode="&#xb2;" horiz-adv-x="464" 
d="M766 548l35 -44l-66 -106h40q-10 -6 -26.5 -15.5t-36.5 -20.5l-2 -4h-6q-25 -13 -51 -26t-48.5 -24t-37.5 -18t-17 -7h-251l-45 40l68 109h-37l25 15t33 18l5 8h9q23 13 48.5 26t47 24t37 18t18.5 7h258zM502 538q-4 0 -28 -11.5t-54.5 -27t-59.5 -31.5t-43 -25h23
l-71 -114l41 -35h247q3 0 27 11.5t55 26.5t60.5 30.5t43.5 24.5h-27l70 112l-31 39h-253zM733 515l21 -27l-61 -97h-265l-16 -26h262q-7 -5 -23.5 -13t-34 -16t-31 -14t-15.5 -6h-241l-28 25l62 99h265l16 25h-261q7 5 23.5 13.5t33.5 16.5t31 14t17 6h245z" />
    <glyph glyph-name="FL00B3h" unicode="&#xb3;" horiz-adv-x="437" 
d="M573 392l-17 -27h-241l-31 -49h335l54 86l-12 14l29 13l54 86h-335l-31 -49h241l-17 -27h-194l-29 -47h194zM305 387h46l35 57h-46l59 94h384l-75 -121l-5 -3l2 -1l-74 -119h-384zM228 283h407l165 265h-407l-71 -115h46l-22 -35h-46z" />
    <glyph glyph-name="FL00B5h" unicode="&#xb4;" horiz-adv-x="320" 
d="M400 266l139 78h-180l-128 -78h169zM172 248l186 114h245l-203 -114h-228zM399 239l232 131h-273l-214 -131h255z" />
    <glyph glyph-name="FL00B6h" unicode="&#xb5;" horiz-adv-x="868" 
d="M118 38h541l196 110h-462l39 62h553l176 282h-207l-106 -170h-346l106 170h-207zM391 518h261l-107 -170h292l107 170h261l-209 -334h-553l-6 -10h504l-289 -162h-578zM54 0h596l306 172h45l224 358h-287l-106 -170h-266l106 170h-287z" />
    <glyph glyph-name="FL09E9h" unicode="&#xb6;" horiz-adv-x="938" 
d="M507 358h-2h2zM502 358h3h-3zM474 263l-4 2l4 -3v1zM807 172l-5 -11l15 12zM909 382l13 7h-14zM915 351l9 12l-11 3zM495 358h-10t-10 2l-7 -9l34 7h-7zM561 252q4 9 -17 9l-10 -6q-3 -5 1 -7q0 4 15 4q10 0 7 -6zM600 351h11h11l27 45l-23 -10l-17 29l-66 -46
q-9 -4 -15.5 -5.5t-11.5 -3.5l9 2l-15 -22q46 15 99 24zM696 366l47 -19l99 23l-9 -13q6 1 12 1.5t12 0.5h2l19 30h-48l28 32l-138 -19l15 28l-67 -27l12 -59zM458 168q-3 -1 -5 -1.5t-5 -1.5l15 -4l-38 -19l100 -4l-25 -24l106 20l3 -32l116 47l20 -28l49 35l-25 12l-31 -4
l8 12l-8 3q-2 -1 -2.5 -2t-1.5 -2h-61l-3 -1l-5 -7q-5 0 -9 0.5t-9 0.5l-59 -16l15 21l-98 -15l6 10q-3 -1 -7 -1h-5q-1 0 -1.5 -0.5t-1.5 -0.5l7 1q-8 -2 -13 -2h-8q-14 0 -24 3zM1144 280q-6 -9 -9 -13t-11 -9l-46 -44h-5q-2 -4 -4 -7.5t-4 -7.5l-3 -5q-29 -46 -94 -65
l-19 4l-22 -30q-45 -45 -90 -45q-14 0 -22.5 3t-16.5 9l-73 -50l-73 -14l-10 29l-125 -51l-49 21l11 17l-122 -19l-28 34l10 12l-129 13l31 50l-31 7q-52 3 -5 78l9 5l-18 15l35 84l43 7l-1 7l66 88l58 -7q61 82 116 82h12l28 -16q34 24 63.5 40.5t65.5 29.5l26 -35l138 56
l25 -43l85 16l79 -11l-24 -31h102l12 -37q-4 -7 -8.5 -13.5t-8.5 -12.5l75 -25l-22 -36q-11 -18 -25 -30q24 -25 8 -50zM1131 280q14 21 -13 46q8 7 15.5 15t14.5 19l17 27l-76 26q9 11 21 29l-10 30h-112l26 32l-65 10l-91 -18l-23 42l-137 -55l-26 34q-33 -11 -61.5 -27.5
t-63.5 -42.5l-34 18h-8q-46 0 -104 -82l-59 6l-53 -70l1 -19l-50 -9l-28 -66l26 -20l-23 -13q-39 -61 6 -61l40 -8l-31 -50l130 -13l-13 -17l23 -27l130 19l-14 -22l37 -16l132 54l10 -31l62 12l77 53q9 -8 18 -11.5t23 -3.5q36 0 71 35l31 44l29 -7q26 8 44 21t29 31l3 5
q9 14 5 24l2 -3v6h17l40 38q6 4 8 6.5t7 9.5zM974 353l-9 -12l-33 16l-26 -40l-15 73l-28 -45q-8 2 -13 2q-14 0 -25.5 -3.5t-22.5 -11.5l16 22l-85 -20l-36 15l-25 -37l-16 72l-29 -48q-11 3 -23 3h-19q-4 -1 -10 -4l10 14q-59 -11 -101 -27l17 24l-57 -10l31 41
q10 -7 27 -7q8 0 16.5 2t20.5 7l79 53l18 -31l122 49l-18 -35l146 21l-30 -34h109l-43 -24l92 -26l-21 -6zM411 169q5 0 12 1.5t18 4.5q-1 -1 7.5 1.5t15.5 4.5q8 -4 26 -4h6t12 2q7 0 13 1t14 5l-9 -13l77 11l7 10q3 -2 6.5 -4t8.5 -4l-11 -15l33 9h13l2 4l15 4h56
q5 5 8.5 8t6.5 5l-2 -7l19 -7l-5 -8l20 2l17 -6l5 8l33 4l8 12q5 -6 13 -9l11 -34l-35 16l-95 -68l-23 31l-119 -49l-2 35l-122 -23l30 30l-117 5l46 23l-81 23l30 9q4 -18 32 -18zM373 313l32 -3l-28 -39zM977 218l-20 5l17 22q2 -8 2 -15q0 -6 1 -12zM464 243q3 5 8.5 10
t12.5 10h-1q4 2 6 4q-4 -5 -7.5 -10t-8.5 -10q-3 -2 -5.5 -2.5t-4.5 -1.5zM343 240l13 1l-6 -7zM1018 291l-10 -1l4 5zM486 271l-2 3l8 -5q-4 0 -6 2zM503 178q1 0 2 0.5t2 0.5h1zM1103 280q-1 -1 -1 -2l-1 -1l-27 -25h-51l5 -46q0 -3 -3 -7l-3 -5q-12 -19 -33 -26l-48 12
l-49 -70q-15 -14 -31 -14q-14 0 -22 6t-21 17l-94 -65l-32 -6l-12 36l-142 -59l-14 6l22 35l-153 -23l-9 11l23 30l-135 13l13 22l31 21l-78 17q-17 0 -3 23l54 31l-43 31l13 29l68 11l-5 44l27 35l60 -7q54 86 80 86h3l46 -25q41 31 66 48t45 24l28 -35l134 54l11 -19
l-17 -18l2 -6l125 24l36 -5l-27 -36h131l5 -13q-11 -16 -21 -24t-24 -10l93 -32l-2 -3l-2 -4q-19 -30 -62 -34q54 -30 44 -46zM1080 271l2 11l-59 50l67 17h6l2 12l-110 30l68 36h-150l37 42l-159 -23l17 36l-7 5l-134 -54l-22 36l-104 -70q-5 -2 -8.5 -2.5t-7.5 -0.5
q-20 0 -38 25l-62 -84l-68 7l-11 -25l5 -54l-75 -6l61 -53l-81 -31l113 -32l-64 -33l149 -7l-43 -42l158 30l1 -25l-18 -23l147 60l27 -37l102 74l56 -26l58 85l65 -13q4 5 5.5 6l1.5 1q8 15 -1 72zM999 313l-60 -77l-15 2l55 82zM920 203l-26 -17l-4 13l20 10zM881 208
q-22 0 -26 53l-32 -52l-17 -2l66 106l12 -68l51 75l12 -7zM791 209l-12 4q7 25 -6 25t-41 -25h-21q21 27 47 53.5t60 52.5q4 2 16 2q17 0 4 -33zM768 320l-71 -105l-29 -8l77 107zM649 205q-24 0 -28 51l-31 -50l-17 -3l64 106l14 -67l49 72l14 -5zM607 279q-54 -74 -84 -74
q-6 -1 -10 -1.5t-7 -0.5q-27 0 -24 17q46 71 96 93h4h6q32 0 19 -34zM537 318l-19 -27q-3 2 -3.5 2.5t-5.5 0.5q-12 0 -36 -15q-28 -20 -42 -43q-12 -21 8 -21q15 0 20 3l-10 -19q-8 -2 -12.5 -3t-9.5 -1q-29 0 -9 47q0 1 4 8l4 6q30 49 111 62zM452 314l-70 -103l-26 -8
l77 108zM804 261l11 36l-42 -36h31zM579 264q7 11 4 11q1 15 -9 15q-16 0 -50 -34l-4 -7q-17 -26 -1 -26q8 0 32 9q10 8 16 15t12 17z" />
    <glyph glyph-name="FL00B7h" unicode="&#xb7;" horiz-adv-x="262" 
d="M352 120h-229l82 131h229zM419 243h-209l-71 -114h209zM337 147h-165l49 78h165z" />
    <glyph glyph-name="FL00B8h" unicode="&#xb8;" horiz-adv-x="196" 
d="M100 29l-27 -43h-92l22 -64h128l67 107h-98zM232 48l-91 -146h-161l-34 104h118l26 42h142zM86 57l-27 -42h-130l40 -122h176l103 164h-162z" />
    <glyph glyph-name="FL00B9h" unicode="&#xb9;" horiz-adv-x="216" 
d="M406 283h-137l94 150h-28q3 12 10.5 29t16 34t16 31.5t11.5 20.5h182zM555 538h-163q-3 -5 -9.5 -16.5t-13.5 -25.5t-12.5 -28t-8.5 -24h30l-93 -150h118zM396 316h-78l94 150h-37q4 11 11.5 27.5t11.5 21.5h123z" />
    <glyph glyph-name="FL00BDh" unicode="&#xba;" horiz-adv-x="437" 
d="M284 316h335l125 199h-335zM595 455l-50 -80h-123l50 80h123zM460 397h74l22 35h-74zM399 538h384l-152 -244h-384zM228 283h407l165 265h-407zM488 422h51l-9 -14h-51z" />
    <glyph glyph-name="FL00BBh" unicode="&#xbb;" horiz-adv-x="318" 
d="M107 39l152 83l176 281l-48 83l-117 -187l31 -35l-76 -37zM226 39l152 83l176 281l-48 83l-117 -187l30 -35l-75 -37zM372 265l-4 -5l6 3zM210 240l46 23l-19 21l159 253l57 -98l62 98l70 -121l-192 -307l-221 -120l61 97l-180 -97zM28 -34l179 96l-60 -96l252 137
l200 319l-80 139l-62 -99l-57 99l-178 -284l13 -14l-32 -16z" />
    <glyph glyph-name="FL00C0h" unicode="&#xbc;" horiz-adv-x="900" 
d="M1058 268l1 11l-58 49l66 17h7v12l-108 30l67 36h-149l37 41l-159 -23l16 35l-6 6l-135 -54l-20 36l-104 -70q-9 -3 -16 -3q-19 0 -37 26l-63 -84l-68 7l-10 -25l5 -53l-74 -6l60 -53l-80 -30l114 -31l-67 -34l151 -6l-42 -41l156 29l2 -24l-18 -23l147 59l27 -36l100 72
l57 -25l56 83l65 -12q6 7 6 6q10 18 0 72zM976 310l-59 -77l-15 3l54 80zM899 201l-26 -17l-5 12l20 11zM860 206q-23 0 -27 52l-32 -51l-16 -2l65 105l12 -68l50 74l13 -6zM770 207l-11 4q6 25 -8 25q-11 0 -39 -25h-21q39 52 106 104q3 3 15 3q17 0 5 -33zM746 316
l-70 -103l-28 -8l76 106zM627 202q-23 0 -27 51l-31 -50l-16 -2l63 105l14 -67l49 72l13 -5zM586 276q-54 -74 -84 -74q-5 0 -9 -0.5t-7 -0.5q-29 0 -23 17q44 70 94 92h5h5q34 0 19 -34zM516 314l-18 -26l-4 2q0 1 -5 1q-12 0 -37 -15q-14 -10 -23 -20.5t-17 -22.5
q-13 -20 8 -20q15 0 19 2l-9 -18q-8 -2 -12.5 -3t-9.5 -1q-29 0 -10 46q0 1 4 8l4 6q31 49 110 61zM432 311l-70 -103l-26 -7l76 106zM782 258l12 36l-42 -36h30zM558 261q7 11 4 11q3 15 -9 15q-16 0 -49 -34l-4 -7q-17 -26 -2 -26q4 0 12.5 2.5t20.5 7.5q16 14 27 31z
M425 219h3h-3zM876 184l4 1l11 15h-10zM983 154q-27 -35 -43.5 -52t-24 -21.5t-8 1.5t4 18.5t12 29t16.5 32.5zM1021 241q0 -34 -10 -51h-54q-4 -6 -8.5 -13t-8.5 -15l-20 4l-62 -90l-68 32l-107 -78l-33 41l-193 -78l54 66v2l-191 -35l54 52l-183 8l85 44l-127 35l106 40
l-79 70l112 8v21l26 65l76 -8l77 103q35 -45 45 -47l124 83l25 -41l128 52l26 -18l-11 -23l173 26l-43 -48h189l-91 -48l76 -21l-8 -60h-36l28 -22l-7 -51zM1098 236l9 70l-3 1h10l8 82l-59 17l101 54h-206l45 50l-180 -27l8 17l-34 24l-126 -51l-26 44l-129 -86
q-5 5 -16 19.5t-28 37.5l-85 -114l-81 9l-33 -82l1 -7l-134 -11l89 -78l-118 -44l133 -38l-94 -48l199 -9l-58 -57l196 36l-62 -75l215 86l35 -44l111 80l74 -33l57 83q2 5 5 10v-1l28 39h74q5 8 7 17.5t4 23.5zM917 142q-13 -23 -23.5 -46t-16 -39.5t-4 -24.5t13 -0.5
t35 33t62.5 74.5l-62 12zM872 197l7 10l26 1l-22 -31l-19 -3z" />
    <glyph glyph-name="FL00BEh" unicode="&#xbd;" horiz-adv-x="904" 
d="M628 362l340 186h354l-558 -304h251l35 -52l-79 -126h45q-11 -7 -29 -18t-41 -23l-4 -6h-6q-27 -15 -56.5 -30.5t-54.5 -28.5t-41.5 -21t-19.5 -8h-275l-48 47l81 129h-9l-197 -107h-354l555 302h-111l110 177h-37q3 14 11 34.5t18 40.5t18.5 36.5t13.5 24.5h246z
M765 602h-220q-3 -6 -10.5 -19t-15 -29t-14 -33t-9.5 -29h41l-110 -177h133l-556 -303h315l199 108h-1h26l-84 -135l41 -42h271q2 0 15.5 6.5t33.5 16.5t44 22.5t46.5 25t42 23t29.5 17.5h-30l82 132l-32 45h-278l-6 -2l561 306h-314l-366 -199zM959 509h230l-863 -470h-231
zM575 341h-105l111 177h-50q1 7 4.5 15.5t7.5 17t7.5 15.5t5.5 10h166zM976 205l22 -32l-72 -115h-290l-19 -31h287q-8 -5 -26.5 -14.5t-37.5 -19t-34.5 -16.5t-17.5 -7h-264l-30 29l73 117h291l19 30h-286q8 6 26.5 15.5t37.5 19.5t34.5 17t18.5 7h268z" />
    <glyph glyph-name="FL00C1h" unicode="&#xbe;" horiz-adv-x="658" 
d="M292 195q-6 2 -5 2l4 -3zM377 187q0 7 -18 7l-9 -5q-1 -2 2 -5q0 3 15 3q9 0 6 -4zM844 253l-67 -84l22 -8l-120 -67l-21 37l-1 -1l-32 -2l-7 -13l-31 9l-27 -2l6 9l-9 2q-2 -1 -2 -2l-2 -1h-57l-4 -1l-4 -5h-18l-53 -11l11 15l-92 -11l4 7h-12q-1 0 -1 -1h-1l7 1
q-8 -2 -13 -2h-8q-7 0 -12.5 0.5t-11.5 1.5q-9 -2 -17 -3.5t-6 -0.5q-8 -2 -13 -2.5t-14 -0.5q-28 0 -38 11l-84 -19l108 145l103 15l-12 -17q20 6 43.5 10t49.5 8l-7 -9h11q7 0 9 -1l31 51l26 -56l13 17l48 -14l92 17l-7 -10q5 1 11 1.5t12 0.5h2l31 50l23 -57l13 17
l33 -11l6 7zM760 262l-7 -9l-33 12l-21 -30l-24 55l-21 -34q-6 2 -13 2q-24 0 -43 -11l12 16l-79 -15l-37 11l-20 -28l-24 54l-22 -36q-9 3 -22 3h-19q-2 -1 -3.5 -1.5t-3.5 -1.5l7 10q-55 -7 -94 -20l14 18l-76 -11l-93 -124l73 17q7 -13 33 -13q9 0 28 4q-1 -1 6.5 1
t14.5 4q8 -4 25 -4h6t12 2q13 0 25 4l-6 -9l72 8l5 8q3 -2 6.5 -4t8.5 -3l-8 -11l30 7h13l2 3l13 3h55q3 3 6 5.5t6 4.5q-1 -2 -1 -5l19 -6l-4 -6l20 1l17 -4l2 6l33 3l6 9q2 -2 5.5 -3.5t6.5 -3.5l19 -32l90 50l-17 6l66 83zM284 180q3 5 8 8t10 7h-1q2 2 3 2t3 1
q-4 -3 -7.5 -7t-6.5 -8q-2 -1 -4.5 -1.5t-4.5 -1.5zM303 201l-3 2l8 -4q-5 0 -5 2zM331 132q1 0 1.5 0.5t1.5 0.5h2zM789 233l-47 -58l-14 2l41 60zM729 151l-23 -13l-6 9l18 8zM690 154q-22 0 -32 40l-24 -39l-16 -1l50 79l21 -51l38 55l13 -4zM604 155l-12 3q2 19 -9 19
q-12 0 -36 -19h-20q31 40 87 78q3 2 15 2q17 0 10 -24zM566 237l-53 -77l-27 -6l60 79zM467 152q-22 0 -33 38l-23 -37l-17 -2l48 78l23 -50l38 54l12 -4zM417 207q-43 -55 -71 -55q-5 -1 -9 -1h-7q-27 0 -24 12q33 53 79 70h4h6q31 0 22 -26zM344 236l-14 -20l-3 2
q0 1 -5 1q-13 0 -34 -12q-23 -15 -34 -32q-9 -15 11 -15q15 0 19 1l-7 -13q-8 -2 -12 -2.5t-9 -0.5q-28 0 -15 34q-1 1 3 6l3 5q22 36 97 46zM264 233l-54 -77l-24 -5l59 80zM609 194l5 26l-35 -26h30zM392 196q6 8 2 8q2 11 -10 11q-17 0 -43 -25l-3 -5q-14 -20 2 -20
q4 0 11 2t18 5q15 11 23 24z" />
    <glyph glyph-name="FL00BFh" unicode="&#xbf;" horiz-adv-x="865" 
d="M870 188h206q-17 -12 -49 -30t-70.5 -39t-79.5 -42t-75.5 -38.5t-59 -28t-29.5 -10.5h-659l224 359h412l107 171h287zM958 347h-674l-210 -335h646q5 0 26.5 9.5t52 24.5t67 33t70.5 36.5t62 34.5t43 26h-601l5 8h411zM700 354h262l103 164h-262zM844 210h-410l-37 -60
h570q-10 -7 -30 -18t-44 -23l-50 -25t-48 -23t-38 -16.5t-20 -6.5h-619l177 284h619zM813 492h207l-70 -112h-207z" />
    <glyph glyph-name="FL09CCh" unicode="&#xc0;" horiz-adv-x="984" 
d="M841 194l62 99l-190 -99h128zM1269 727l28 -176h57l-344 -551h-336l-69 136l-261 -136h-389l1046 542l-50 185h318zM686 12h319l330 527h-320l-1016 -527h347l270 141zM1283 544l-27 171h-285l46 -171h266zM667 181l264 138l-86 -138h-178zM354 39h-258l912 473h282
l-296 -473h-281l-57 115h200l139 222zM1047 571l-31 117h209l19 -117h-197z" />
    <glyph glyph-name="FL09B0h" unicode="&#xc1;" horiz-adv-x="984" 
d="M841 194l62 99l-190 -99h128zM1234 551h120l-344 -551h-336l-69 136l-261 -136h-389l1025 532h-72l276 195h318zM686 12h319l330 527h-320l-1016 -527h347l270 141zM1207 544l261 171h-285l-241 -171h265zM667 181l264 138l-86 -138h-178zM354 39h-258l912 473h282
l-296 -473h-281l-57 115h200l139 222zM1015 571l165 117h209l-178 -117h-196z" />
    <glyph glyph-name="FL00C2h" unicode="&#xc2;" horiz-adv-x="984" 
d="M1067 558l-10 -7h9zM841 194l62 99l-191 -99h129zM1342 531l-332 -531h-336l-68 137l-262 -137h-389l1024 531h-261l275 195h357l33 -195h-41zM686 12h319l330 527h-320l-1016 -527h347l270 141zM1031 543l51 39v-39h281l-28 171h-344l-241 -171h281zM667 181l264 138
l-86 -138h-178zM354 39h-258l912 473h282l-296 -473h-281l-57 115h200l138 221zM823 570l165 117h317l19 -117h-210v61l-81 -61h-210z" />
    <glyph glyph-name="FL00C3h" unicode="&#xc3;" horiz-adv-x="984" 
d="M995 376l-139 -222h-200l57 -115h281l296 473h-282l-912 -473h258zM1399 688h-191l-71 -57l-4 58h-286l-158 -117h190l70 56l4 -56h290zM845 181l86 138l-264 -138h178zM1241 545h-319l-3 33l-40 -33h-259l228 171h316l3 -36l43 35h259zM616 153l-270 -141h-347l1016 527
h320l-330 -527h-319zM1500 727h-291l-29 -24l-2 25h-328l-262 -195h290l27 21l2 -21h75l-1027 -533h389l261 136l69 -136h336l344 551h-90zM713 194l191 100l-63 -100h-128z" />
    <glyph glyph-name="FL00C4h" unicode="&#xc4;" horiz-adv-x="984" 
d="M841 194l62 99l-191 -99h129zM1354 551v0l-344 -551h-336l-68 137l-262 -137h-389l1025 532h-220l122 195h582zM686 12h319l330 527h-320l-1016 -527h347l270 141zM1071 544h266l107 171h-266zM1153 715h-265l-107 -171h265zM667 181l264 138l-86 -138h-178zM354 39h-258
l912 473h282l-296 -473h-281l-57 115h200l139 222zM1035 571h-210l73 117h210zM1189 688h210l-73 -117h-210z" />
    <glyph glyph-name="FL00C5h" unicode="&#xc5;" horiz-adv-x="984" 
d="M995 376l-139 -222h-200l57 -115h281l296 473h-282l-912 -473h258zM1328 688h-210l-73 -117h210zM1218 607h-91l28 45h91zM845 181l86 138l-264 -138h178zM1266 544h-265l107 171h265zM616 153l-270 -141h-347l1016 527h320l-330 -527h-319zM1393 727h-291l-122 -195
l-1025 -532h389l261 136l69 -136h336l344 551h-71zM713 194l190 99l-62 -99h-128z" />
    <glyph glyph-name="FL00C6h" unicode="&#xc6;" horiz-adv-x="1612" 
d="M736 38h721q4 0 20.5 6.5t39 16.5t49.5 23t52 25t45.5 23t30.5 18h-596l37 60h556l70 112h-556l37 59h581q12 13 26 29.5t27 33t23.5 29.5t15.5 19h-897l-921 -454h267l647 323l-134 -213h-207zM865 174l83 133l-267 -133h184zM628 148l-272 -136h-358l1026 506h946
q-20 -20 -32.5 -35t-20.5 -26q-15 -19 -37.5 -45.5t-51.5 -56.5h-574l-5 -7h556l-102 -164h-556l-5 -8h629q-16 -10 -45 -26t-64 -34.5t-72 -36.5t-68.5 -33t-54 -24.5t-27.5 -9.5h-732zM696 0h737q6 0 31 10.5t60.5 28t77.5 38.5t82 42t73 39.5t50 29.5h-89l97 155h14
q38 38 61.5 66t37.5 46q18 24 66 75h-967l-1074 -530h402l263 132zM726 186l193 96l-60 -96h-133z" />
    <glyph glyph-name="FL00C7h" unicode="&#xc7;" horiz-adv-x="822" 
d="M117 39h309l-36 -58h-112l21 -87h155l90 145h131q4 0 20 6.5t38.5 17t48.5 24t50 26t44.5 24t30.5 18.5h-509l149 239h495q13 13 27 30.5t27 34.5t23.5 30.5t15.5 19.5h-724zM401 536h787q-19 -20 -32 -36t-21 -27q-16 -20 -38 -47t-53 -59h-487l-115 -185h540
q-16 -11 -44.5 -27.5t-62.5 -35.5t-70.5 -38t-67.5 -34.5t-52.5 -25t-26.5 -9.5h-104l-90 -145h-195l-32 141h143l2 4h-309zM54 0h168l33 -146h213l91 146h92q5 0 29.5 11t59.5 28.5t76 39.5t80 43.5t71.5 40.5t49.5 31h-556l101 161h484q38 39 61.5 68t37.5 48
q9 12 26 31.5t40 45.5h-815z" />
    <glyph glyph-name="FL00C8h" unicode="&#xc8;" horiz-adv-x="886" 
d="M398 551h335l-45 178h315l25 -178h250q-48 -51 -66 -77q-15 -20 -39 -48.5t-62 -68.5h-13l-101 -162h85q-18 -12 -50.5 -31t-71.5 -40.5t-80.5 -43.5t-76.5 -40t-59.5 -29t-29.5 -11h-660zM74 12h647q5 0 27 10t53 25.5t67.5 34.5t71 38t63 35.5t43.5 27.5h-602l6 9h532
l106 170h-532l5 7h549q30 32 52.5 59.5t37.5 47.5q8 11 21 26.5t33 36.5h-850zM1014 546l-25 171h-282l45 -171h262zM414 512h787q-5 -6 -15.5 -20t-24 -30.5t-28 -34.5t-27.5 -31h-556l-37 -60h532l-73 -117h-532l-40 -63h571q-11 -7 -31 -18.5t-44.5 -24.5t-50.5 -26
t-48.5 -24t-38.5 -17.5t-20 -6.5h-620zM782 573l-31 117h207l18 -117h-194z" />
    <glyph glyph-name="FL00C9h" unicode="&#xc9;" horiz-adv-x="886" 
d="M399 552h222l250 178h315l-269 -178h362q-49 -52 -67 -78q-15 -20 -39 -48.5t-62 -68.5h-13l-101 -162h85q-18 -12 -50.5 -31t-71.5 -40.5t-80.5 -43.5t-76.5 -40t-59.5 -29t-29.5 -11h-660zM74 12h647q5 0 27 10t53 25.5t67.5 34.5t71 38t63 35.5t43.5 27.5h-602l6 9
h532l106 170h-532l5 7h549q30 32 52.5 59.5t37.5 47.5q8 11 21 26.5t33 36.5h-850zM894 547l258 171h-281l-240 -171h263zM414 512h787q-5 -6 -15.5 -20t-24 -30.5t-28 -34.5t-27.5 -31h-556l-37 -60h532l-73 -117h-532l-40 -63h571q-11 -7 -31 -18.5t-44.5 -24.5t-50.5 -26
t-48.5 -24t-38.5 -17.5t-20 -6.5h-620zM704 574l163 117h207l-176 -117h-194z" />
    <glyph glyph-name="FL00CAh" unicode="&#xca;" horiz-adv-x="886" 
d="M831 560l-13 -9h13v9zM398 551h112l250 178h353l27 -178h138q-48 -51 -66 -77q-15 -20 -39 -48.5t-62 -68.5h-13l-101 -162h85q-18 -12 -50.5 -31t-71.5 -40.5t-80.5 -43.5t-76.5 -40t-59.5 -29t-29.5 -11h-660zM74 12h647q5 0 27 10t53 25.5t67.5 34.5t71 38t63 35.5
t43.5 27.5h-602l6 9h532l106 170h-532l5 7h549q30 32 52.5 59.5t37.5 47.5q8 11 21 26.5t33 36.5h-850zM796 546l50 38v-38h279l-26 171h-341l-239 -171h277zM414 512h787q-5 -6 -15.5 -20t-24 -30.5t-28 -34.5t-27.5 -31h-556l-37 -60h532l-73 -117h-532l-40 -63h571
q-11 -7 -31 -18.5t-44.5 -24.5t-50.5 -26t-48.5 -24t-38.5 -17.5t-20 -6.5h-620zM591 573l164 117h313l19 -117h-208v61l-80 -61h-208z" />
    <glyph glyph-name="FL00CBh" unicode="&#xcb;" horiz-adv-x="886" 
d="M1113 551h165q-48 -51 -66 -77q-15 -20 -39 -48.5t-62 -68.5h-13l-101 -162h85q-18 -12 -50.5 -31t-71.5 -40.5t-80.5 -43.5t-76.5 -40t-59.5 -29t-29.5 -11h-660l344 551h140l112 178h575zM74 12h647q5 0 27 10t53 25.5t67.5 34.5t71 38t63 35.5t43.5 27.5h-602l6 9h532
l106 170h-532l5 7h549q30 32 52.5 59.5t37.5 47.5q8 11 21 26.5t33 36.5h-850zM917 717h-262l-107 -171h262zM835 546h263l107 171h-263zM414 512h787q-5 -6 -15.5 -20t-24 -30.5t-28 -34.5t-27.5 -31h-556l-37 -60h532l-73 -117h-532l-40 -63h571q-11 -7 -31 -18.5
t-44.5 -24.5t-50.5 -26t-48.5 -24t-38.5 -17.5t-20 -6.5h-620zM800 573h-208l73 117h208zM953 690h207l-73 -117h-207z" />
    <glyph glyph-name="FL00EDh" unicode="&#xcc;" horiz-adv-x="284" 
d="M668 582l-5 119h-180l16 -119h169zM216 -85l379 606h-184l-301 -481zM471 555l-23 173h244l7 -173h-228zM77 25l326 523h231l-425 -681zM206 -155l436 697h71l-7 199h-274l24 -180h-55l-340 -544z" />
    <glyph glyph-name="FL00EEh" unicode="&#xcd;" horiz-adv-x="283" 
d="M582 582l164 119h-180l-153 -119h169zM216 -85l379 606h-184l-301 -481zM348 555l223 173h245l-240 -173h-228zM77 25l326 523h231l-425 -681zM206 -155l448 716h-55l249 180h-274l-256 -199h71l-328 -525z" />
    <glyph glyph-name="FL00EFh" unicode="&#xce;" horiz-adv-x="305" 
d="M516 581l79 63l-3 -63h197l-13 119h-297l-160 -119h197zM238 -85l379 606h-201l-301 -481zM250 554l233 173h323l19 -173h-265l2 39l-49 -39h-263zM81 25l326 523h252l-425 -681zM232 -155l435 696h175l-22 199h-335l-268 -199h174l-327 -524zM547 561h-10l9 7z" />
    <glyph glyph-name="FL00F7h" unicode="&#xcf;" horiz-adv-x="303" 
d="M591 582h198l74 119h-198zM590 701h-198l-74 -119h198zM235 -85l379 606h-201l-301 -481zM524 555h-248l108 173h248zM657 728h248l-108 -173h-248zM77 25l326 523h253l-425 -681zM925 741h-546l-124 -199h133l-328 -525l169 -172l436 697h136z" />
    <glyph glyph-name="FL00D0h" unicode="&#xd0;" horiz-adv-x="990" 
d="M226 210h131l-107 -172h612q39 0 72.5 11t60 27.5t46 37t31.5 40.5l139 222q16 26 16.5 47.5t-10 36.5t-30 23.5t-42.5 8.5h-612l-106 -170h-131zM530 150l37 60h138l70 112h-138l37 59h319q1 -8 1.5 -10t-2.5 -7l-123 -197q-10 -11 -21 -17h-318zM579 184l-5 -8h274
l112 179h-274l-5 -7h137l-102 -164h-137zM284 348h131l107 170h640q28 0 51 -10t35 -29t11 -45t-21 -58l-139 -222q-15 -24 -38.5 -49t-56 -45.5t-72.5 -34t-87 -13.5h-640l108 172h-131zM161 172h131l-107 -172h653q51 0 94 14.5t77.5 37t60.5 49.5t42 53l139 222
q21 34 22.5 62.5t-12 48.5t-38 31.5t-54.5 11.5h-653l-106 -170h-131zM828 343h111l-97 -155h-111z" />
    <glyph glyph-name="FL00D1h" unicode="&#xd1;" horiz-adv-x="1019" 
d="M952 -85l379 606h-210l-175 -279l-248 279h-277l-301 -481h353l203 117h-273l136 217zM1299 702h-191l-72 -58l-4 59h-287l-158 -119h191l70 57l3 -57h290zM535 323l-87 -139h211zM1139 557h-320l-2 33l-41 -33h-259l230 173h316l3 -36l43 35h260zM695 144l-228 -131
h-392l334 535h314l226 -256l160 256h266l-427 -684zM1401 742h-291l-31 -25l-1 26h-329l-241 -182h-103l-351 -561h410l221 128l260 -288l451 721h-236zM776 544l27 22l1 -22h290l-143 -228l-200 228h25zM625 197h-156l64 103z" />
    <glyph glyph-name="FL00D2h" unicode="&#xd2;" 
d="M462 195h241l101 162h-241zM868 0h-814l344 551h322l-44 178h313l24 -178h199zM1192 539h-788l-330 -527h788zM558 369h267l-117 -186h-267zM1000 546l-25 171h-280l44 -171h261zM768 573l-30 117h206l17 -117h-193zM852 39h-734l296 473h734zM547 396l-150 -240h321
l150 240h-321z" />
    <glyph glyph-name="FL00D3h" unicode="&#xd3;" 
d="M463 195h241l101 162h-241zM398 551h198l249 178h313l-269 -178h323l-344 -551h-814zM74 12h788l330 527h-788zM559 369h266l-117 -186h-266zM865 546l258 171h-280l-239 -171h261zM548 396l-150 -240h321l150 240h-321zM414 512h734l-296 -473h-734zM676 573l164 117
h205l-176 -117h-193z" />
    <glyph glyph-name="FL00D4h" unicode="&#xd4;" 
d="M811 560l-12 -9h12v9zM463 195h241l101 162h-241zM398 551h94l249 178h351l26 -178h94l-344 -551h-814zM74 12h788l330 527h-788zM777 546l49 38v-38h277l-25 171h-339l-239 -171h277zM559 369h266l-117 -186h-266zM548 396l-150 -240h321l150 240h-321zM414 512h734
l-296 -473h-734zM573 573l163 117h311l18 -117h-206v61l-80 -61h-206z" />
    <glyph glyph-name="FL00D5h" unicode="&#xd5;" 
d="M414 512l-296 -473h734l296 473h-734zM548 396h321l-150 -240h-321zM1210 689h-187l-71 -57l-4 58h-282l-155 -117h187l69 56l3 -56h285zM442 183h266l117 186h-266zM1053 546h-314l-2 33l-41 -33h-254l227 171h310l3 -36l41 35h256zM1192 539l-330 -527h-788l330 527
h788zM1310 728h-286l-29 -24l-1 25h-323l-237 -178h-36l-344 -551h814l344 551h-137zM564 357h241l-101 -162h-241zM722 551h-5l5 4v-4z" />
    <glyph glyph-name="FL00D6h" unicode="&#xd6;" 
d="M463 195h241l101 162h-241zM1091 551h121l-344 -551h-814l344 551h121l112 178h572zM74 12h788l330 527h-788zM559 369h266l-117 -186h-266zM896 717h-261l-107 -171h261zM815 546h260l107 171h-260zM548 396l-150 -240h321l150 240h-321zM414 512h734l-296 -473h-734z
M779 573h-206l73 117h206zM932 690h206l-73 -117h-206z" />
    <glyph glyph-name="FL00D7h" unicode="&#xd7;" horiz-adv-x="376" 
d="M540 394l-114 -70l-27 71l-121 -75l27 -71l-115 -70l27 -75l116 71l27 -70l120 74l-26 70l114 71zM602 320l-115 -71l27 -70l-176 -108l-26 70l-116 -71l-40 109l115 70l-27 71l176 109l28 -71l113 70zM571 444l-113 -70l-28 71l-202 -125l27 -71l-115 -70l46 -125
l116 71l26 -70l202 124l-27 70l115 71z" />
    <glyph glyph-name="FL00D8h" unicode="&#xd8;" 
d="M118 38h734l283 454h-734zM539 381h194l-290 -154zM528 150l279 146l-91 -146h-188zM704 176l41 66l-125 -66h84zM550 355l-46 -73l138 73h-92zM391 518h788l-317 -506h-788zM54 0h814l331 530h-814zM599 343l-66 -35l22 35h44zM662 188l55 28l-18 -28h-37z" />
    <glyph glyph-name="FL00D9h" unicode="&#xd9;" 
d="M398 551h286l-222 -356h241l212 339h-189l-50 195h313l24 -178h199l-344 -551h-814zM74 12h788l330 527h-261l-223 -356h-267l223 356h-260zM1000 546l-25 171h-280l44 -171h261zM414 512h206l-223 -356h321l223 356h207l-296 -473h-734zM768 573l-30 117h206l17 -117
h-193z" />
    <glyph glyph-name="FL00DAh" unicode="&#xda;" 
d="M675 534l-212 -339h241l222 356h286l-344 -551h-814l344 551h198l249 178h313l-295 -195h-188zM1192 539h-261l-223 -356h-266l223 356h-261l-330 -527h788zM865 546l258 171h-280l-239 -171h261zM676 573l164 117h205l-176 -117h-193zM852 39h-734l296 473h207
l-223 -356h321l223 356h206z" />
    <glyph glyph-name="FL00DBh" unicode="&#xdb;" 
d="M675 534l-212 -339h241l212 339h-104l-1 26l-34 -26h-102zM868 0h-814l344 551h94l249 178h351l26 -178h94zM1192 539h-261l-223 -356h-266l223 356h-261l-330 -527h788zM777 546l49 38v-38h277l-25 171h-339l-239 -171h277zM573 573l163 117h311l18 -117h-206v61
l-80 -61h-206zM852 39h-734l296 473h207l-223 -356h321l223 356h206z" />
    <glyph glyph-name="FL00DCh" unicode="&#xdc;" 
d="M463 195h241l212 339h-241zM1091 551h121l-344 -551h-814l344 551h121l112 178h572zM931 539l-223 -356h-266l223 356h-261l-330 -527h788l330 527h-261zM896 717h-261l-107 -171h261zM815 546h260l107 171h-260zM1148 512l-296 -473h-734l296 473h207l-223 -356h321
l223 356h206zM779 573h-206l73 117h206zM932 690h206l-73 -117h-206z" />
    <glyph glyph-name="FL00DDh" unicode="&#xdd;" horiz-adv-x="868" 
d="M894 0h-597l-87 179h-44l232 372h209l248 177h314l-295 -195h-200l-99 -158h266l110 176h287zM1218 539h-261l-111 -177h-292l111 177h-261l-217 -347h553l-7 -11h-504l81 -169h578zM877 545l257 171h-281l-238 -171h262zM878 39h-541l-56 115h462l41 65h-553l183 293
h207l-111 -177h346l111 177h207zM686 572l165 117h206l-177 -117h-194z" />
    <glyph glyph-name="FL00DEh" unicode="&#xde;" 
d="M401 492l-283 -454h210l163 261h318l-44 -70h-265l-70 -112h471l184 294h-524l50 81h-210zM490 255h263l12 19h-263zM655 518l-51 -81h524l-216 -346h-524l-50 -79h-264l317 506h264zM385 530l-331 -530h290l49 79h524l232 370h-524l50 81h-290z" />
    <glyph glyph-name="FL00DFh" unicode="&#xdf;" 
d="M51 -69h210l287 460h318l-39 -63h-239l-69 -111h239l-40 -64h-239l-72 -114h445l127 202l-27 32l66 31l126 202h-734zM399 532h788l-151 -242l-38 -18l16 -18l-152 -242h-499l105 168h238l7 10h-238l102 164h238l7 11h-263l-287 -460h-264zM-13 -107h290l67 107h524
l163 261l-9 11l23 11l164 262h-814z" />
    <glyph glyph-name="FL00E0h" unicode="&#xe0;" horiz-adv-x="839" 
d="M720 551l-44 178h313l24 -178h196l-344 -551h-287l111 178h-237l-111 -178h-287l344 551h322zM403 539l-330 -527h262l112 178h263l-112 -178h261l330 527h-786zM999 546l-24 171h-280l44 -171h260zM559 369h263l-6 -9h-263zM548 396l-38 -62h317l38 62h-317zM1145 512
l-296 -473h-207l112 178h-317l-112 -178h-207l296 473h731zM768 573l-30 117h206l17 -117h-193z" />
    <glyph glyph-name="FL00E1h" unicode="&#xe1;" horiz-adv-x="839" 
d="M593 551l249 178h313l-269 -178h323l-344 -551h-287l111 178h-237l-111 -178h-287l344 551h195zM403 539l-330 -527h262l112 178h263l-112 -178h261l330 527h-786zM862 546l258 171h-280l-239 -171h261zM559 369h263l-6 -9h-263zM673 573l164 117h205l-175 -117h-194z
M1145 512l-296 -473h-207l112 178h-317l-112 -178h-207l296 473h731zM548 396l-38 -62h317l38 62h-317z" />
    <glyph glyph-name="FL00E2h" unicode="&#xe2;" horiz-adv-x="839" 
d="M811 560l-13 -9h13v9zM492 551l249 178h351l26 -178h91l-344 -551h-287l111 178h-237l-111 -178h-287l344 551h94zM403 539l-330 -527h262l112 178h263l-112 -178h261l330 527h-786zM776 546l50 38v-38h277l-26 171h-338l-239 -171h276zM559 369h263l-6 -9h-263zM548 396
l-38 -62h317l38 62h-317zM1145 512l-296 -473h-207l112 178h-317l-112 -178h-207l296 473h731zM572 573l164 117h311l18 -117h-207l1 61l-80 -61h-207z" />
    <glyph glyph-name="FL00E3h" unicode="&#xe3;" horiz-adv-x="839" 
d="M414 512l-296 -473h207l112 178h317l-112 -178h207l296 473h-731zM865 396l-38 -62h-317l38 62h317zM1210 689h-187l-71 -57l-4 58h-282l-155 -117h187l69 56l3 -56h285zM553 360h263l6 9h-263zM1053 546h-314l-2 33l-41 -33h-254l227 171h310l2 -36l42 35h255zM1189 539
l-330 -527h-261l112 178h-263l-112 -178h-262l330 527h786zM1310 728h-286l-29 -24l-2 25h-323l-236 -178h-36l-344 -551h287l111 178h237l-111 -178h287l344 551h-135zM722 551h-5l5 4v-4z" />
    <glyph glyph-name="FL00E5h" unicode="&#xe4;" horiz-adv-x="839" 
d="M1203 729l-112 -178h118l-344 -551h-287l111 178h-237l-111 -178h-287l344 551h121l112 178h286h286zM403 539l-330 -527h262l112 178h263l-112 -178h261l330 527h-786zM896 717h-261l-107 -171h261zM814 546h261l107 171h-261zM559 369h263l-6 -9h-263zM548 396l-38 -62
h317l38 62h-317zM1145 512l-296 -473h-207l112 178h-317l-112 -178h-207l296 473h731zM779 573h-207l73 117h207zM931 690h207l-73 -117h-207z" />
    <glyph glyph-name="FL00E6h" unicode="&#xe5;" horiz-adv-x="839" 
d="M995 690h-207l-73 -117h207zM414 512l-296 -473h207l112 178h317l-112 -178h207l296 473h-731zM865 396l-38 -62h-317l38 62h317zM886 609h-89l28 45h89zM553 360h263l6 9h-263zM932 546h-261l107 171h261zM1189 539l-330 -527h-261l112 178h-263l-112 -178h-262l330 527
h786zM398 551l-344 -551h287l111 178h237l-111 -178h287l344 551h-262l112 178h-286l-112 -178h-263z" />
    <glyph glyph-name="FL00E7h" unicode="&#xe6;" horiz-adv-x="1476" 
d="M404 492l-283 -454h216l106 170h331l-106 -170h645q4 0 20.5 6.5t39 16.5t49 23t51.5 25t45 23t31 18h-593l37 60h553l70 112h-553l37 59h578q12 13 26 29.5t27 33t23.5 29.5t15.5 19h-1366zM882 381l-37 -60h-331l37 60h331zM558 346h274l6 9h-274zM1824 518
q-19 -20 -32 -35t-21 -26q-14 -19 -36.5 -45.5t-51.5 -56.5h-571l-5 -7h553l-102 -164h-553l-5 -8h625q-15 -10 -44 -26t-64 -34.5t-71.5 -36.5t-68 -33t-54 -24.5t-27.5 -9.5h-673l107 171h-274l-107 -171h-274l317 506h1432zM386 530l-331 -530h300l107 171h248l-107 -171
h686q6 0 31 10.5t60.5 28t77 38.5t81 42t72.5 39.5t51 29.5h-89l97 155h14q38 38 61.5 66t37.5 46q8 12 24.5 30.5t40.5 44.5h-1462z" />
    <glyph glyph-name="FL00E8h" unicode="&#xe7;" horiz-adv-x="831" 
d="M117 39h309l-36 -58h-112l21 -87h155l90 145h131q4 0 20 6.5t38.5 17t48.5 24t50 26t44.5 24t30.5 18.5h-509l149 239h495q13 13 27 30.5t27 34.5t23.5 30.5t15.5 19.5h-724zM401 536h787q-19 -20 -32 -36t-21 -27q-16 -20 -38 -47t-53 -59h-487l-115 -185h540
q-16 -11 -44.5 -27.5t-62.5 -35.5t-70.5 -38t-67.5 -34.5t-52.5 -25t-26.5 -9.5h-104l-90 -145h-195l-32 141h143l2 4h-309zM54 0h168l33 -146h213l91 146h92q5 0 29.5 11t59.5 28.5t76 39.5t80 43.5t71.5 40.5t49.5 31h-556l101 161h484q38 39 61.5 68t37.5 48
q9 12 26 31.5t40 45.5h-815z" />
    <glyph glyph-name="FL00ECh" unicode="&#xe8;" horiz-adv-x="895" 
d="M398 551h335l-45 178h315l25 -178h250q-48 -51 -66 -77q-15 -20 -39 -48.5t-62 -68.5h-13l-101 -162h85q-18 -12 -50.5 -31t-71.5 -40.5t-80.5 -43.5t-76.5 -40t-59.5 -29t-29.5 -11h-660zM74 12h647q5 0 27 10t53 25.5t67.5 34.5t71 38t63 35.5t43.5 27.5h-602l6 9h532
l106 170h-532l5 7h549q30 32 52.5 59.5t37.5 47.5q8 11 21 26.5t33 36.5h-850zM1014 546l-25 171h-282l45 -171h262zM414 512h787q-5 -6 -15.5 -20t-24 -30.5t-28 -34.5t-27.5 -31h-556l-37 -60h532l-73 -117h-532l-40 -63h571q-11 -7 -31 -18.5t-44.5 -24.5t-50.5 -26
t-48.5 -24t-38.5 -17.5t-20 -6.5h-620zM782 573l-31 117h207l18 -117h-194z" />
    <glyph glyph-name="FL00E9h" unicode="&#xe9;" horiz-adv-x="895" 
d="M399 552h222l250 178h315l-269 -178h362q-49 -52 -67 -78q-15 -20 -39 -48.5t-62 -68.5h-13l-101 -162h85q-18 -12 -50.5 -31t-71.5 -40.5t-80.5 -43.5t-76.5 -40t-59.5 -29t-29.5 -11h-660zM74 12h647q5 0 27 10t53 25.5t67.5 34.5t71 38t63 35.5t43.5 27.5h-602l6 9
h532l106 170h-532l5 7h549q30 32 52.5 59.5t37.5 47.5q8 11 21 26.5t33 36.5h-850zM894 547l258 171h-281l-240 -171h263zM414 512h787q-5 -6 -15.5 -20t-24 -30.5t-28 -34.5t-27.5 -31h-556l-37 -60h532l-73 -117h-532l-40 -63h571q-11 -7 -31 -18.5t-44.5 -24.5t-50.5 -26
t-48.5 -24t-38.5 -17.5t-20 -6.5h-620zM704 574l163 117h207l-176 -117h-194z" />
    <glyph glyph-name="FL00EAh" unicode="&#xea;" horiz-adv-x="895" 
d="M831 560l-13 -9h13v9zM398 551h112l250 178h353l27 -178h138q-48 -51 -66 -77q-15 -20 -39 -48.5t-62 -68.5h-13l-101 -162h85q-18 -12 -50.5 -31t-71.5 -40.5t-80.5 -43.5t-76.5 -40t-59.5 -29t-29.5 -11h-660zM74 12h647q5 0 27 10t53 25.5t67.5 34.5t71 38t63 35.5
t43.5 27.5h-602l6 9h532l106 170h-532l5 7h549q30 32 52.5 59.5t37.5 47.5q8 11 21 26.5t33 36.5h-850zM796 546l50 38v-38h279l-26 171h-341l-239 -171h277zM414 512h787q-5 -6 -15.5 -20t-24 -30.5t-28 -34.5t-27.5 -31h-556l-37 -60h532l-73 -117h-532l-40 -63h571
q-11 -7 -31 -18.5t-44.5 -24.5t-50.5 -26t-48.5 -24t-38.5 -17.5t-20 -6.5h-620zM591 573l164 117h313l19 -117h-208v61l-80 -61h-208z" />
    <glyph glyph-name="FL00EBh" unicode="&#xeb;" horiz-adv-x="895" 
d="M1113 551h165q-48 -51 -66 -77q-15 -20 -39 -48.5t-62 -68.5h-13l-101 -162h85q-18 -12 -50.5 -31t-71.5 -40.5t-80.5 -43.5t-76.5 -40t-59.5 -29t-29.5 -11h-660l344 551h140l112 178h575zM74 12h647q5 0 27 10t53 25.5t67.5 34.5t71 38t63 35.5t43.5 27.5h-602l6 9h532
l106 170h-532l5 7h549q30 32 52.5 59.5t37.5 47.5q8 11 21 26.5t33 36.5h-850zM917 717h-262l-107 -171h262zM835 546h263l107 171h-263zM414 512h787q-5 -6 -15.5 -20t-24 -30.5t-28 -34.5t-27.5 -31h-556l-37 -60h532l-73 -117h-532l-40 -63h571q-11 -7 -31 -18.5
t-44.5 -24.5t-50.5 -26t-48.5 -24t-38.5 -17.5t-20 -6.5h-620zM800 573h-208l73 117h208zM953 690h207l-73 -117h-207z" />
    <glyph glyph-name="F" unicode="&#xec;" horiz-adv-x="284" 
d="M50 0l344 551h55l-25 177h274l9 -195h-71l-333 -533h-253zM299 12l330 527h-231l-330 -527h231zM693 545l-9 171h-244l25 -171h228zM109 39l296 473h184l-296 -473h-184zM492 572l-16 117h180l5 -117h-169z" />
    <glyph glyph-name="G" unicode="&#xed;" horiz-adv-x="283" 
d="M49 0l333 533h-70l254 195h274l-248 -177h55l-344 -551h-254zM298 12l330 527h-231l-330 -527h231zM570 545l238 171h-245l-221 -171h228zM108 39l296 473h184l-296 -473h-184zM406 572l153 117h180l-164 -117h-169z" />
    <glyph glyph-name="H" unicode="&#xee;" horiz-adv-x="305" 
d="M540 558l-10 -7h10v7zM52 0l332 532h-173l266 195h335l24 -195h-176l-332 -532h-276zM323 12l330 527h-252l-330 -527h252zM507 544l48 38l-1 -38h265l-20 171h-323l-232 -171h263zM114 39l296 473h200l-296 -473h-200zM313 571l159 117h297l14 -117h-197l2 61l-78 -61
h-197z" />
    <glyph glyph-name="I" unicode="&#xef;" horiz-adv-x="303" 
d="M795 533h-136l-333 -533h-276l333 533h-134l122 195h546zM321 12l330 527h-252l-330 -527h252zM543 545h248l106 171h-248zM624 716h-248l-106 -171h248zM112 39l296 473h201l-296 -473h-201zM509 572h-198l74 117h198zM658 689h198l-74 -117h-198z" />
    <glyph glyph-name="FL00F0h" unicode="&#xf0;" horiz-adv-x="891" 
d="M183 206l228 137h-110q14 47 28 79t24 51q1 3 6.5 18.5t13.5 38.5h875l-331 -530h-863zM193 201l-119 -189h837l317 506h-845q-5 -14 -9.5 -25t-8.5 -19q-8 -19 -22 -50t-25 -69h545l-5 -7h-421zM446 184h310l-5 -8h-310zM906 381h-552q3 13 10 29.5t14.5 33t14 29.5
t8.5 19h783l-283 -454h-783l95 152l219 132h437zM762 150l37 60h-364l-37 -60h364z" />
    <glyph glyph-name="FL00F1h" unicode="&#xf1;" horiz-adv-x="1019" 
d="M952 -85l379 606h-210l-175 -279l-248 279h-277l-301 -481h353l203 117h-273l136 217zM1299 702h-191l-72 -58l-4 59h-287l-158 -119h191l70 57l3 -57h290zM535 323l-87 -139h211zM1139 557h-320l-2 33l-41 -33h-259l230 173h316l3 -36l43 35h260zM695 144l-228 -131
h-392l334 535h314l226 -256l160 256h266l-427 -684zM1401 742h-291l-31 -25l-1 26h-329l-241 -182h-103l-351 -561h410l221 128l260 -288l451 721h-236zM776 544l27 22l1 -22h290l-143 -228l-200 228h25zM625 197h-156l64 103z" />
    <glyph glyph-name="FL00F2h" unicode="&#xf2;" 
d="M462 195h241l101 162h-241zM868 0h-814l344 551h322l-44 178h313l24 -178h199zM1192 539h-788l-330 -527h788zM558 369h267l-117 -186h-267zM1000 546l-25 171h-280l44 -171h261zM768 573l-30 117h206l17 -117h-193zM852 39h-734l296 473h734zM547 396l-150 -240h321
l150 240h-321z" />
    <glyph glyph-name="FL00F3h" unicode="&#xf3;" 
d="M463 195h241l101 162h-241zM398 551h198l249 178h313l-269 -178h323l-344 -551h-814zM74 12h788l330 527h-788zM559 369h266l-117 -186h-266zM865 546l258 171h-280l-239 -171h261zM548 396l-150 -240h321l150 240h-321zM414 512h734l-296 -473h-734zM676 573l164 117
h205l-176 -117h-193z" />
    <glyph glyph-name="FL00F4h" unicode="&#xf4;" 
d="M811 560l-12 -9h12v9zM463 195h241l101 162h-241zM398 551h94l249 178h351l26 -178h94l-344 -551h-814zM74 12h788l330 527h-788zM777 546l49 38v-38h277l-25 171h-339l-239 -171h277zM559 369h266l-117 -186h-266zM548 396l-150 -240h321l150 240h-321zM414 512h734
l-296 -473h-734zM573 573l163 117h311l18 -117h-206v61l-80 -61h-206z" />
    <glyph glyph-name="FL00F5h" unicode="&#xf5;" 
d="M414 512l-296 -473h734l296 473h-734zM548 396h321l-150 -240h-321zM1210 689h-187l-71 -57l-4 58h-282l-155 -117h187l69 56l3 -56h285zM442 183h266l117 186h-266zM1053 546h-314l-2 33l-41 -33h-254l227 171h310l3 -36l41 35h256zM1192 539l-330 -527h-788l330 527
h788zM1310 728h-286l-29 -24l-1 25h-323l-237 -178h-36l-344 -551h814l344 551h-137zM564 357h241l-101 -162h-241zM722 551h-5l5 4v-4z" />
    <glyph glyph-name="FL00F6h" unicode="&#xf6;" 
d="M463 195h241l101 162h-241zM1091 551h121l-344 -551h-814l344 551h121l112 178h572zM74 12h788l330 527h-788zM559 369h266l-117 -186h-266zM896 717h-261l-107 -171h261zM815 546h260l107 171h-260zM548 396l-150 -240h321l150 240h-321zM414 512h734l-296 -473h-734z
M779 573h-206l73 117h206zM932 690h206l-73 -117h-206z" />
    <glyph glyph-name="FL0100h" unicode="&#xf7;" horiz-adv-x="525" 
d="M271 351h109l82 131h269l-82 -131h117l-114 -183h-117l-83 -133h-269l83 133h-109zM176 180h109l-83 -133h245l83 133h117l100 159h-117l82 131h-245l-82 -131h-109zM286 314h420l-68 -109h-420zM438 72h-195l68 109h195zM603 336h-195l68 109h195z" />
    <glyph glyph-name="FL00F8h" unicode="&#xf8;" 
d="M118 38h734l283 454h-734zM539 381h194l-290 -154zM528 150l279 146l-91 -146h-188zM704 176l41 66l-125 -66h84zM550 355l-46 -73l138 73h-92zM391 518h788l-317 -506h-788zM54 0h814l331 530h-814zM599 343l-66 -35l22 35h44zM662 188l55 28l-18 -28h-37z" />
    <glyph glyph-name="FL00F9h" unicode="&#xf9;" 
d="M398 551h286l-222 -356h241l212 339h-189l-50 195h313l24 -178h199l-344 -551h-814zM74 12h788l330 527h-261l-223 -356h-267l223 356h-260zM1000 546l-25 171h-280l44 -171h261zM414 512h206l-223 -356h321l223 356h207l-296 -473h-734zM768 573l-30 117h206l17 -117
h-193z" />
    <glyph glyph-name="FL00FAh" unicode="&#xfa;" 
d="M675 534l-212 -339h241l222 356h286l-344 -551h-814l344 551h198l249 178h313l-295 -195h-188zM1192 539h-261l-223 -356h-266l223 356h-261l-330 -527h788zM865 546l258 171h-280l-239 -171h261zM676 573l164 117h205l-176 -117h-193zM852 39h-734l296 473h207
l-223 -356h321l223 356h206z" />
    <glyph glyph-name="FL00FBh" unicode="&#xfb;" 
d="M675 534l-212 -339h241l212 339h-104l-1 26l-34 -26h-102zM868 0h-814l344 551h94l249 178h351l26 -178h94zM1192 539h-261l-223 -356h-266l223 356h-261l-330 -527h788zM777 546l49 38v-38h277l-25 171h-339l-239 -171h277zM573 573l163 117h311l18 -117h-206v61
l-80 -61h-206zM852 39h-734l296 473h207l-223 -356h321l223 356h206z" />
    <glyph glyph-name="FL00FCh" unicode="&#xfc;" 
d="M463 195h241l212 339h-241zM1091 551h121l-344 -551h-814l344 551h121l112 178h572zM931 539l-223 -356h-266l223 356h-261l-330 -527h788l330 527h-261zM896 717h-261l-107 -171h261zM815 546h260l107 171h-260zM1148 512l-296 -473h-734l296 473h207l-223 -356h321
l223 356h206zM779 573h-206l73 117h206zM932 690h206l-73 -117h-206z" />
    <glyph glyph-name="FL00FDh" unicode="&#xfd;" horiz-adv-x="868" 
d="M885 579l177 118h-206l-165 -118h194zM621 -42l164 263h207l186 297h-207l-112 -179h-346l112 179h-207l-186 -297h345l-42 -68h-226l15 -23q24 -20 58.5 -49.5t67.5 -56.5t56.5 -46.5t25.5 -19.5h89zM619 552l239 172h281l-258 -172h-262zM515 -69q-3 0 -28.5 19.5
t-60 47.5t-70.5 58t-60 51l-51 73h279l9 14h-345l220 351h261l-112 -178h292l112 178h261l-220 -351h-207l-164 -263h-116zM636 -81l164 262h207l236 377h-287l-112 -179h-266l100 160h200l297 198h-314l-249 -179h-209l-236 -377h55l59 -83q16 -14 38.5 -33t46.5 -39
t48 -39t44 -34t33 -24.5t16 -9.5h129z" />
    <glyph glyph-name="FL00FEh" unicode="&#xfe;" 
d="M401 492l-283 -454h210l163 261h318l-44 -70h-265l-70 -112h471l184 294h-524l50 81h-210zM490 255h263l12 19h-263zM655 518l-51 -81h524l-216 -346h-524l-50 -79h-264l317 506h264zM385 530l-331 -530h290l49 79h524l232 370h-524l50 81h-290z" />
    <glyph glyph-name="FL00FFh" unicode="&#xff;" horiz-adv-x="868" 
d="M869 579h207l74 118h-207zM863 697h-207l-74 -118h207zM621 -42l164 263h207l186 297h-207l-112 -179h-346l112 179h-207l-186 -297h345l-42 -68h-226l15 -23q24 -20 58.5 -49.5t67.5 -56.5t56.5 -46.5t25.5 -19.5h89zM799 552h-262l107 172h262zM931 724h262l-107 -172
h-262zM515 -69q-3 0 -28.5 19.5t-60 47.5t-70.5 58t-60 51l-51 73h279l9 14h-345l220 351h261l-112 -178h292l112 178h261l-220 -351h-207l-164 -263h-116zM928 737h-287l-112 -179h-126l-236 -377h55l59 -83q16 -14 38.5 -33t46.5 -39t48 -39t44 -34t33 -24.5t16 -9.5h129
l164 262h207l236 377h-140l112 179h-287zM678 539h266l-100 -160h-266z" />
    <glyph glyph-name="FL0152h" unicode="&#x152;" horiz-adv-x="1454" 
d="M121 38h1179q4 0 20.5 6.5t39 16.5t49 23t51.5 25t45 23t31 18h-593l37 60h553l70 112h-553l37 59h578q12 13 26 29.5t27 33t23.5 29.5t15.5 19h-1353zM551 381h320l-144 -231h-320zM452 176h262l112 179h-262zM392 518h1419q-19 -20 -32 -35t-21 -26
q-14 -19 -36.5 -45.5t-51.5 -56.5h-570l-5 -7h552l-102 -164h-552l-5 -8h624q-15 -10 -44 -26t-64 -34.5t-71.5 -36.5t-68 -33t-54 -24.5t-27.5 -9.5h-1208zM55 0h1221q6 0 31 10.5t60.5 28t77 38.5t81 42t72.5 39.5t51 29.5h-89l97 155h14q38 38 61 66t37 46q18 24 66 75
h-1449zM569 343h236l-97 -155h-236z" />
    <glyph glyph-name="FL0153h" unicode="&#x153;" horiz-adv-x="1454" 
d="M121 38h1179q4 0 20.5 6.5t39 16.5t49 23t51.5 25t45 23t31 18h-593l37 60h553l70 112h-553l37 59h578q12 13 26 29.5t27 33t23.5 29.5t15.5 19h-1353zM551 381h320l-144 -231h-320zM452 176h262l112 179h-262zM392 518h1419q-19 -20 -32 -35t-21 -26
q-14 -19 -36.5 -45.5t-51.5 -56.5h-570l-5 -7h552l-102 -164h-552l-5 -8h624q-15 -10 -44 -26t-64 -34.5t-71.5 -36.5t-68 -33t-54 -24.5t-27.5 -9.5h-1208zM55 0h1221q6 0 31 10.5t60.5 28t77 38.5t81 42t72.5 39.5t51 29.5h-89l97 155h14q38 38 61 66t37 46q18 24 66 75
h-1449zM569 343h236l-97 -155h-236z" />
    <glyph glyph-name="FL0160h" unicode="&#x160;" horiz-adv-x="896" 
d="M617 551l-28 177h312l-1 -28l37 28h310l-248 -177h59q8 0 27 -24t39 -56t37 -64.5t21 -50.5h-38l-222 -356h-660q-8 0 -27 24t-39 56t-37 64.5t-21 50.5h38l222 356h219zM404 539l-217 -347h579l-6 -9h-602q2 -11 10 -27.5t18.5 -35.5t23 -38.5t24 -34.5t21 -25t14.5 -10
h647l219 349h-579l4 7h602q-3 16 -18 44.5t-33 56.5t-35.5 49t-24.5 21h-647zM936 716l-50 -39v39h-279l28 -171h340l239 171h-278zM1034 512q6 0 19.5 -14t27.5 -33.5t25.5 -39t14.5 -30.5h-571l-38 -60h579l-185 -296h-620q-6 0 -19 14.5t-27.5 33.5t-26 38.5t-14.5 30.5
h571l40 63h-579l183 293h620zM1142 689l-164 -117h-314l-17 117h208l-1 -62l80 62h208z" />
    <glyph glyph-name="FL0161h" unicode="&#x161;" horiz-adv-x="896" 
d="M978 572l164 117h-208l-80 -62l1 62h-208l17 -117h314zM1202 512h-788l-183 -293h579l-40 -63h-579l-73 -117h788l185 296h-579l38 60h579zM635 545l-28 171h279v-39l50 39h278l-239 -171h-340zM1139 368h-579l-4 -7h579l-219 -349h-842l107 171h579l6 9h-579l217 347
h842zM1266 551h-267l248 177h-310l-37 -28l1 28h-312l28 -177h-219l-344 -551h868z" />
    <glyph glyph-name="FL0178h" unicode="&#x178;" horiz-adv-x="868" 
d="M575 375h266l99 158h-266zM1209 728l-111 -177h140l-344 -551h-597l-87 179h-44l232 372h126l111 177h287h287zM1218 539h-261l-111 -177h-292l111 177h-261l-217 -347h553l-7 -11h-504l81 -169h578zM901 716h-262l-106 -171h262zM820 545h262l106 171h-262zM878 39h-541
l-56 115h462l41 65h-553l183 293h207l-111 -177h346l111 177h207zM784 572h-207l74 117h207zM938 689h207l-74 -117h-207z" />
    <glyph glyph-name="FL017Dh" unicode="&#x17d;" horiz-adv-x="896" 
d="M582 512q-4 0 -20 -6.5t-38 -17t-48 -24t-51 -26.5t-45 -24.5t-31 -18.5h571l-38 -60h-579l-185 -296h620q4 0 20 6.5t38.5 17.5t48.5 24t50.5 26t45 24.5t30.5 18.5h-571l40 63h579l183 293h-620zM696 689l16 -117h314l165 117h-207l-78 -62l-2 62h-208zM934 716l2 -39
l48 39h279l-240 -171h-340l-27 171h278zM1246 539l-217 -347h-579l-6 -9h602q-15 -11 -43.5 -27.5t-63 -35.5t-71 -38.5t-67.5 -34.5t-53 -25t-27 -10h-647l219 349h579l4 7h-602q15 10 43.5 27t63 36t71 38t67.5 35t53 25.5t27 9.5h647zM639 728l26 -177h-59q-6 0 -30 -11
t-59 -29t-76.5 -40t-80.5 -43.5t-71.5 -40.5t-50.5 -31h38l-222 -356h660q5 0 29.5 11t59.5 29t76.5 40t80.5 43.5t71.5 40.5t50.5 31h-38l222 356h-219l250 177h-312l-35 -28l-1 28h-310z" />
    <glyph glyph-name="FL017Eh" unicode="&#x17e;" horiz-adv-x="896" 
d="M582 512q-4 0 -20 -6.5t-38 -17t-48 -24t-51 -26.5t-45 -24.5t-31 -18.5h571l-38 -60h-579l-185 -296h620q4 0 20 6.5t38.5 17.5t48.5 24t50.5 26t45 24.5t30.5 18.5h-571l40 63h579l183 293h-620zM696 689l16 -117h314l165 117h-207l-78 -62l-2 62h-208zM934 716l2 -39
l48 39h279l-240 -171h-340l-27 171h278zM1246 539l-217 -347h-579l-6 -9h602q-15 -11 -43.5 -27.5t-63 -35.5t-71 -38.5t-67.5 -34.5t-53 -25t-27 -10h-647l219 349h579l4 7h-602q15 10 43.5 27t63 36t71 38t67.5 35t53 25.5t27 9.5h647zM639 728l26 -177h-59q-6 0 -30 -11
t-59 -29t-76.5 -40t-80.5 -43.5t-71.5 -40.5t-50.5 -31h38l-222 -356h660q5 0 29.5 11t59.5 29t76.5 40t80.5 43.5t71.5 40.5t50.5 31h-38l222 356h-219l250 177h-312l-35 -28l-1 28h-310z" />
    <glyph glyph-name="FL0076h" unicode="&#x192;" horiz-adv-x="996" 
d="M925 -156l-644 702h413l225 -245l153 245h291zM1344 534h-266l-160 -256l-235 256h-368l612 -667zM930 -83l-541 590h268l258 -278l174 278h210z" />
    <glyph glyph-name="FL02C6h" unicode="&#x2c6;" horiz-adv-x="532" 
d="M141 239l226 131h335l64 -131h-297l-4 18l-29 -18h-295zM434 247l41 26l6 -26h265l-55 114h-323l-198 -114h264zM235 265l134 78h297l39 -78h-197l-11 41l-65 -41h-197z" />
    <glyph glyph-name="FL02DCh" unicode="&#x2dc;" horiz-adv-x="678" 
d="M901 344h-184l-58 -38l-15 39h-277l-131 -79h184l58 38l13 -38h280zM775 248h-309l-8 22l-34 -22h-250l189 114h305l10 -23l34 23h252zM992 370h-282l-24 -16l-6 17h-317l-217 -131h280l22 14l6 -14h322z" />
    <glyph glyph-name="FL2013h" unicode="&#x2013;" horiz-adv-x="411" 
d="M179 147h308l49 78h-308zM214 243h358l-71 -114h-358zM126 120h380l82 131h-380z" />
    <glyph glyph-name="FL2014h" unicode="&#x2014;" horiz-adv-x="525" 
d="M182 147h420l49 78h-420zM216 243h471l-71 -114h-471zM127 120h495l82 131h-495z" />
    <glyph glyph-name="FL2018h" unicode="&#x2018;" horiz-adv-x="262" 
d="M514 431l-227 -102h-1l-62 -99h1h164zM397 208h-181l-37 -15l99 159h17l266 119zM583 490l-285 -128h-24l-116 -186l54 21h188z" />
    <glyph glyph-name="FL2019h" unicode="&#x2019;" horiz-adv-x="262" 
d="M224 230l227 102h1l62 99h-1h-164zM341 453h181l37 14l-99 -158h-17l-266 -119zM155 171l285 128h24l116 186l-53 -21h-189z" />
    <glyph glyph-name="FL201Ah" unicode="&#x201a;" horiz-adv-x="262" 
d="M37 -69l228 102h1l61 99h-1h-164zM154 154h181l38 15l-99 -158h-17l-267 -120zM-32 -128l285 128h24l116 186l-53 -21h-189z" />
    <glyph glyph-name="FL201Ch" unicode="&#x201c;" horiz-adv-x="393" 
d="M647 432l-199 -104l-63 -101l1 1h133zM490 432l-199 -104l-63 -101l1 1h133zM469 358l231 121l-171 -274h-148l-54 -32l20 32h-122l-55 -32l103 165l271 141zM570 502l-305 -159l-122 -196l80 48h107l-30 -48l80 48h155l192 307l-234 -122z" />
    <glyph glyph-name="FL201Dh" unicode="&#x201d;" horiz-adv-x="393" 
d="M228 228l199 104l64 101l-1 -1h-134zM385 228l199 104l64 101l-1 -1h-134zM346 454h148l55 33l-20 -33h122l54 33l-103 -165l-271 -142l76 121l-233 -121zM150 158l232 121l-75 -121l303 158l124 197l-81 -48h-106l30 48l-81 -48h-154z" />
    <glyph glyph-name="FL201Eh" unicode="&#x201e;" horiz-adv-x="393" 
d="M42 -71l199 104l63 101l-1 -1h-134zM199 -71l199 104l63 101l-1 -1h-134zM159 156h148l55 32l-20 -32h122l54 32l-103 -165l-270 -142l76 122l-233 -122zM-37 -141l233 121l-76 -121l304 158l123 197l-81 -48h-106l30 48l-81 -48h-154z" />
    <glyph glyph-name="FL2020h" unicode="&#x2020;" horiz-adv-x="409" 
d="M340 405l-71 -113h58l-158 -254h189l158 254h59l71 113h-59l54 87h-189l-54 -87h-58zM390 431l55 87h237l-55 -87h60l-102 -164h-60l-160 -255h-237l160 255h-59l102 164h59zM328 443l-118 -188h58l-159 -255h261l159 255h59l118 188h-59l54 87h-261l-54 -87h-58z" />
    <glyph glyph-name="FL2021h" unicode="&#x2021;" horiz-adv-x="409" 
d="M340 405l-71 -113h58l-31 -51h-58l-70 -112h58l-57 -91h189l57 91h59l70 112h-59l31 51h59l71 113h-59l54 87h-189l-54 -87h-58zM390 431l55 87h237l-55 -87h60l-205 -328h-60l-57 -91h-237l57 91h-59l205 328h59zM328 443l-220 -352h58l-57 -91h261l57 91h59l220 352
h-59l54 87h-261l-54 -87h-58z" />
    <glyph glyph-name="FL2022h" unicode="&#x2022;" horiz-adv-x="386" 
d="M636 368l-168 -269h-355l168 269h355zM285 357l-155 -248h332l155 248h-332zM579 335l-127 -203h-284l127 203h284z" />
    <glyph glyph-name="FL2026h" unicode="&#x2026;" horiz-adv-x="766" 
d="M791 0h-737l82 131h737zM855 123h-712l-72 -115h712zM767 26h-204l50 79h204zM540 26h-204l50 79h204zM313 26h-204l50 79h204z" />
    <glyph glyph-name="FL2030h" unicode="&#x2030;" horiz-adv-x="1370" 
d="M140 39h237l881 470h-237zM311 344h382l147 235h-382zM669 508l-59 -95h-141l59 95h141zM557 -30h382l147 235h-382zM915 134l-60 -95h-141l60 95h141zM956 -30h382l147 235h-382zM1314 134l-60 -95h-141l60 95h141zM1158 66h85l26 41h-85zM760 66h84l26 41h-84zM514 440
h84l26 41h-84zM648 160l-277 -148h-325l572 305h-352l180 288h438l-137 -219l279 149h324l-569 -304h748l-180 -288h-837zM492 -69h863l195 313h-725l570 304h-365l-252 -135l128 205h-465l-195 -313h329l-572 -305h365l250 133zM545 469h58l-11 -17h-58zM791 95h58l-10 -17
h-58zM1190 95h58l-10 -17h-58z" />
    <glyph glyph-name="FL2039h" unicode="&#x2039;" horiz-adv-x="167" 
d="M154 -34l-46 137l200 319l218 139l-178 -284l-26 -14l7 -16zM317 240l-11 23l38 21l159 253l-190 -121l-192 -307l39 -120zM173 39l-27 83l176 281l131 83l-117 -187l-63 -35l18 -37z" />
    <glyph glyph-name="FL203Ah" unicode="&#x203a;" horiz-adv-x="167" 
d="M94 39l131 83l176 281l-27 83l-117 -187l20 -35l-65 -37zM203 240l38 23l-11 21l159 253l38 -121l-192 -307l-189 -120zM23 -34l216 137l200 319l-44 139l-178 -284l8 -14l-27 -16z" />
    <glyph glyph-name="FL20ACh" unicode="&#x20ac;" horiz-adv-x="913" 
d="M268 279h124l-18 -30h-123l-45 -72h123l-87 -139h523q4 0 19.5 6.5t37.5 16.5t48 23l50 25t44 23t31 18h-474l17 27h181l45 72h-181l18 30h180l45 72h-180l19 30h459q12 13 26 29.5t27 33t23 29.5t15 19h-690l-88 -141h-124zM302 376h124l89 142h753q-37 -40 -52 -61
q-15 -19 -37 -45.5t-51 -56.5h-272l-51 -81h1l-61 -98h324q-15 -10 -43 -26t-62 -34.5t-70.5 -36.5t-67 -33t-52 -24.5t-26.5 -9.5h-550l87 139h-123l64 102h-1zM205 241h1l-64 -102h123l-87 -139h563q5 0 29.5 10.5t59 28t75 38.5t79 42t71 39.5t49.5 29.5h-339l62 98h-1
l35 57h268q38 38 61 66t37 46q8 12 24.5 30.5t40.5 44.5h-783l-89 -142h-124z" />
    <glyph glyph-name="FL2122h" unicode="&#x2122;" horiz-adv-x="702" 
d="M382 322h34l18 6t43 15t52 18.5t45 16.5l17 7h-88l51 83h120l24 37h-290l-24 -37h89zM613 348h82l25 40l7 -40h63l57 40l-25 -40h82l99 157h-78l-130 -101l-5 101h-78zM543 407h81l25 39h-81zM601 370l-30 -13q-18 -7 -46.5 -16.5l-55.5 -18.5l-46.5 -15.5t-20.5 -6.5
h-61l92 146h-88l50 81h423l5 -78l100 78h120l-125 -201h-344zM555 316h368l139 221h-141l-86 -66l-3 66h-443l-64 -102h89l-91 -146h73q1 0 21 6.5t48 15.5t58.5 19.5t52.5 18.5zM573 435h57l-11 -17h-57z" />
    </font>
</defs>
</svg>
